SplineFontDB: 1.0
FontName: MnSymbolS7
FullName: MnSymbolS7
FamilyName: MnSymbolS7
Weight: Regular
Copyright: Generated from MetaFont bitmap by mftrace 1.1.17, http://www.xs4all.nl/~hanwen/mftrace/ 
Version: 001.001
ItalicAngle: 0
UnderlinePosition: -100
UnderlineWidth: 50
Ascent: 800
Descent: 200
NeedsXUIDChange: 1
UniqueID: 4252572
OS2TypoAscent: 0
OS2TypoAOffset: 1
OS2TypoDescent: 0
OS2TypoDOffset: 1
OS2TypoLinegap: 0
OS2WinAscent: 0
OS2WinAOffset: 1
OS2WinDescent: 0
OS2WinDOffset: 1
HheadAscent: 0
HheadAOffset: 1
HheadDescent: 0
HheadDOffset: 1
OS2Vendor: 'PfEd'
Encoding: Custom
UnicodeInterp: none
NameList: Adobe Glyph List
DisplaySize: -24
AntiAlias: 1
FitToEm: 1
WinInfo: 54 18 9
BeginPrivate: 3
lenIV 1 4
BlueValues 2 []
ForceBold 5 false
EndPrivate
BeginChars: 256 28
StartChar: A
Encoding: 65 65 2
Width: 914
Flags: HMW
Back
128.634 66.5371 m 0
 135.316 61.6396 142.864 57.627 151.071 54.6396 c 0
 159.335 51.6318 168.266 49.6611 177.651 48.8154 c 0
 226.09 44.4502 302.972 151.647 358.919 229.005 c 0
 459.808 368.502 547.077 513.309 619.744 660.874 c 1
 668.034 660.874 l 1
 666.268 656.993 l 2
 584.085 484.533 485.009 318.343 371.252 161.051 c 0
 294.974 55.582 210.942 -55.9141 146.503 -50.1074 c 0
 135.58 -49.123 125.171 -46.835 115.429 -43.2891 c 0
 105.752 -39.7666 96.7324 -35.0049 88.5352 -28.9971 c 0
 74.0801 -18.4023 53.667 1.53223 47.8281 31.1338 c 0
 44.1934 49.5654 52.8594 80.8955 67.1738 101.066 c 0
 81.4883 121.237 96.0566 122.648 99.6914 104.217 c 0
 102.113 91.9365 114.942 76.5713 128.634 66.5371 c 0
763.197 217.718 m 0
 770.459 162.231 783.127 108.753 801.027 57.9316 c 0
 801.785 55.7832 802.709 53.7793 803.779 51.9277 c 0
 811.008 39.4053 826.154 33.4834 835.924 35.7773 c 0
 835.93 35.7783 834.387 35.3594 832.068 34.1895 c 1
 849.27 42.8682 l 2
 874.826 55.7617 897.514 56.4355 899.912 44.3711 c 0
 902.311 32.3076 883.516 12.0518 857.959 -0.841797 c 2
 840.758 -9.52051 l 2
 828.598 -15.6553 814.207 -21.4453 799.182 -24.9727 c 0
 752.176 -36.0088 724.645 -20.0752 713.25 -0.338867 c 0
 711.639 2.45508 710.262 5.44238 709.143 8.62207 c 0
 690.809 60.6729 677.83 115.449 670.385 172.338 c 0
 649 335.736 637.473 502.444 635.857 671.715 c 0
 635.732 684.874 656.463 705.109 682.131 716.883 c 0
 707.797 728.657 728.73 727.534 728.857 714.376 c 0
 730.463 546.058 741.926 380.252 763.197 217.718 c 0
381.004 163.027 m 2
 361.784 163.027 360.007 177.364 377.035 195.028 c 0
 394.063 212.692 423.481 227.028 442.7 227.028 c 2
 747.641 227.028 l 2
 766.859 227.028 768.637 212.692 751.607 195.028 c 0
 734.58 177.364 705.162 163.028 685.943 163.028 c 2
 381.004 163.027 l 2
EndSplineSet
Fore
664 227 m 1
 649 349 641 472 637 597 c 1
 589 501 512 364 413 220 c 1
 423 224 433 227 443 227 c 2
 664 227 l 1
636 672 m 0
 636 693 685 725 713 725 c 0
 723 725 728.958 721 729 714 c 0
 730 546 742 380 763 218 c 0
 773 142 796 66 804 52 c 0
 810 41 822 35 831 35 c 0
 833 35 834 35 835 36 c 1
 849 43 l 2
 863 50 875 53 884 53 c 0
 893 53 900 50 900 42 c 0
 900 30 882 11 858 -1 c 2
 841 -10 l 2
 818 -21 792 -28 769 -28 c 0
 742 -28 718 -18 709 9 c 0
 692 58 679 109 672 163 c 1
 381 163 l 2
 378 163 375 163 373 164 c 1
 300 62 215 -50 151 -50 c 0
 96 -50 47 -1 47 40 c 0
 47 75 72 117 88 117 c 0
 94 117 98 113 100 104 c 0
 105 79 144 49 181 49 c 0
 229 49 304 153 359 229 c 0
 460 369 547 513 620 661 c 1
 636 661 l 1
 636 663 636 670 636 672 c 0
EndSplineSet
EndChar
StartChar: B
Encoding: 66 66 3
Width: 749
Flags: HMW
Back
130.626 192.335 m 0
 166.49 335.791 193.391 479.153 211.161 621.57 c 1
 187.335 609.55 l 2
 161.779 596.656 139.092 595.982 136.693 608.047 c 0
 134.295 620.11 153.089 640.366 178.646 653.26 c 2
 256.786 692.684 l 2
 271.023 699.867 283.24 703.228 293.505 702.785 c 0
 303.771 702.342 308.439 698.252 307.54 690.494 c 0
 289.74 537.047 261.391 382.359 222.659 227.437 c 0
 205.456 158.622 177.668 89.8955 139.747 23.252 c 0
 130.303 6.6543 103.268 -11.7061 79.3994 -17.7324 c 0
 55.5322 -23.7578 43.8262 -15.1787 53.2705 1.41895 c 0
 88.0361 62.5166 114.309 127.066 130.626 192.335 c 0
388.414 44.3232 m 0
 459.552 44.3232 515.109 62.0566 544.776 79.1846 c 0
 567.211 92.1377 593.022 115.408 603.75 158.316 c 0
 614.024 199.415 608.864 236.013 591.688 265.765 c 0
 552.494 333.653 456.596 360.762 360.294 344.498 c 0
 339.066 340.914 330.802 348.976 339.623 364.664 c 0
 348.445 380.352 370.075 396.058 393.724 403.947 c 0
 481.977 433.39 543.265 455.552 586.442 480.48 c 0
 617.31 498.301 632.064 513.952 637.388 535.246 c 0
 643.024 557.791 640.169 578.549 630.439 595.402 c 0
 610.038 630.739 562.605 644.928 519.727 639.267 c 0
 483.904 634.537 460.367 622.828 447.457 615.375 c 0
 366.169 568.443 274.15 433.4 222.659 227.437 c 0
 218.969 212.674 195.358 192.83 169.957 183.143 c 0
 144.556 173.454 126.936 177.572 130.626 192.335 c 0
 172.333 359.166 257.837 555.09 426.157 652.27 c 0
 445.308 663.325 499.812 693.221 569.277 702.393 c 0
 644.21 712.286 698.601 686.411 720.968 647.669 c 0
 732.994 626.837 737.066 600.928 729.422 570.347 c 0
 722.158 541.294 695.431 494.213 607.742 443.586 c 0
 585.614 430.811 561.207 418.923 536.448 408.071 c 1
 604.315 396.078 655.964 363.503 682.216 318.03 c 0
 701.692 284.295 708.041 242.447 695.784 193.418 c 0
 681.463 136.134 636.673 83.0498 566.076 42.291 c 0
 482.996 -5.6748 392.595 -19.6523 326.739 -19.6523 c 0
 237.192 -19.6523 184.343 17.957 160.462 40.0869 c 0
 151.506 48.3857 163.76 67.7705 187.814 83.3555 c 0
 211.869 98.9414 238.661 104.854 247.617 96.5547 c 0
 302.281 45.8994 369.728 44.3232 388.414 44.3232 c 0
EndSplineSet
Fore
733 600 m 0
 733 562 716 487 536 408 c 1
 619 393 702 340 702 242 c 0
 702 96 526 -20 327 -20 c 0
 223 -20 158 36 158 47 c 0
 158 67 204 100 235 100 c 0
 240 100 245 99 248 97 c 0
 302 46 370 44 388 44 c 0
 460 44 515 62 545 79 c 0
 589 105 609 152 609 197 c 0
 609 303 509 349 414 349 c 0
 381 349 359 344 351 344 c 0
 341 344 336 347 336 354 c 0
 336 364 354.099 390.7 394 404 c 0
 604 474 640 501 640 558 c 0
 640 609 593 640 536 640 c 0
 396 640 279 453 223 227 c 0
 205 159 178 90 140 23 c 0
 129 3 91 -20 66 -20 c 0
 56 -20 50 -16 50 -9 c 0
 50 5 99 66 131 192 c 0
 166 336 193 479 211 622 c 1
 187 610 l 2
 174 603 161 599 152 599 c 0
 144 599 136 602 136 610 c 0
 136 622 155 641 179 653 c 2
 257 693 l 2
 271 700 283 703 292 703 c 0
 302 703 308 699 308 692 c 0
 308 687 294 582 285 527 c 1
 409 685 550 705 601 705 c 0
 679 705 733 662 733 600 c 0
EndSplineSet
EndChar
StartChar: C
Encoding: 67 67 4
Width: 618
Flags: HMW
Back
495.83 556.282 m 0
 506.957 584.13 502.538 605.532 495.994 616.868 c 0
 491.509 624.636 484.724 630.224 476.896 633.028 c 0
 465.827 636.994 454.045 638.842 442.951 638.842 c 0
 380.527 638.842 333.908 623.313 301.014 604.321 c 0
 242.68 570.643 172.539 492.65 139.16 359.133 c 0
 117.979 274.405 124.868 191.301 159.257 131.735 c 0
 201.262 58.9766 268.409 46.9619 287.29 43.9717 c 0
 337.847 35.9658 382.744 49.5635 414.067 67.6475 c 0
 436.117 80.3779 460.649 100.23 483.512 130.562 c 0
 496.58 147.898 525.116 164.688 547.208 168.037 c 0
 569.301 171.388 576.625 160.037 563.557 142.7 c 0
 531.956 100.776 488.07 61.1816 435.367 30.7539 c 0
 360.888 -12.2471 282.068 -29.7637 216.002 -19.3008 c 0
 128.239 -5.40234 86.6016 48.5107 68.7285 79.4697 c 0
 31.3965 144.135 24.1094 231.964 47.126 324.031 c 0
 95.335 516.867 217.357 605.215 279.714 641.216 c 0
 354.081 684.151 431.134 702.817 504.627 702.817 c 0
 523.818 702.817 540.626 699.808 555.506 694.477 c 0
 570.343 689.161 580.153 680.164 586.521 669.134 c 0
 595.514 653.56 601.318 624.032 586.021 585.744 c 0
 572.78 552.608 556.076 519.783 535.909 487.658 c 0
 525.318 470.788 497.747 452.865 474.365 447.651 c 0
 450.984 442.438 440.604 451.897 451.194 468.768 c 0
 468.746 496.727 483.781 526.125 495.83 556.282 c 0
EndSplineSet
Fore
447 457 m 0
 447 470 502 539 502 593 c 0
 502 630 472 639 443 639 c 0
 381 639 334 623 301 604 c 0
 202 547 127 397 127 264 c 0
 127 129 207 41 317 41 c 0
 375 41 437 69 484 131 c 0
 499.103 150.923 533 169 554 169 c 0
 565 169 570 165 570 158 c 0
 570 134 429 -22 256 -22 c 0
 123 -22 34 72 34 221 c 0
 34 254 38 288 47 324 c 0
 111 580 322 703 505 703 c 0
 582 703 595 662 595 634 c 0
 595 606 582 561 536 488 c 0
 522 466 485 446 463 446 c 0
 453 446 447 450 447 457 c 0
EndSplineSet
EndChar
StartChar: D
Encoding: 68 68 5
Width: 885
Flags: HMW
Back
272.565 324.031 m 0
 298.257 426.796 313.73 529.447 318.705 630.408 c 0
 319.371 643.923 340.737 664.114 366.396 675.478 c 0
 392.056 686.84 412.34 685.094 411.674 671.578 c 0
 406.609 568.804 390.858 464.167 364.6 359.133 c 0
 338.341 254.098 301.706 149.183 255.119 45.8203 c 0
 247.921 29.8516 222.084 10.7764 197.445 3.24219 c 0
 172.807 -4.29199 158.652 2.55371 165.85 18.5234 c 0
 211.09 118.896 246.875 221.268 272.565 324.031 c 0
316.964 64.1592 m 2
 430.896 64.1592 535.114 94.0977 608.57 136.507 c 0
 688.117 182.434 741.671 249.337 761.891 330.217 c 0
 779.429 400.365 773.005 456.254 747.977 499.607 c 0
 700.505 581.834 585.569 619.005 438.056 619.005 c 2
 334.353 619.005 l 2
 315.141 619.005 313.363 633.336 330.386 650.993 c 0
 347.408 668.65 376.815 682.98 396.027 682.98 c 2
 499.73 682.981 l 2
 659.796 682.98 786.051 642.729 838.504 551.873 c 0
 866.127 504.025 873.135 442.155 853.925 365.318 c 0
 826.65 256.222 743.107 164.99 629.87 99.6133 c 0
 508.729 29.6729 371.467 0.183594 255.289 0.183594 c 2
 132.879 0.183594 l 2
 113.667 0.18457 111.891 14.5146 128.913 32.1719 c 0
 145.936 49.8291 175.343 64.1602 194.555 64.1602 c 2
 316.964 64.1592 l 2
171.199 587.705 m 0
 156.165 579.025 148.974 568.509 148.052 567.293 c 0
 136.081 551.516 131.768 534.675 130.522 529.691 c 0
 126.831 514.929 103.221 495.085 77.8193 485.397 c 0
 52.418 475.709 34.7979 479.827 38.4883 494.59 c 0
 45.3438 522.011 58.5645 542.71 68.2129 555.428 c 0
 97.4736 593.995 140.912 619.41 149.899 624.6 c 0
 161.082 631.056 157.421 628.828 159.314 629.848 c 0
 202.183 652.915 278.642 682.98 396.027 682.98 c 0
 415.239 682.98 417.016 668.65 399.993 650.993 c 0
 382.972 633.336 353.563 619.005 334.353 619.005 c 0
 260.756 619.005 202.603 604.655 173.925 589.224 c 0
 173.892 589.206 215.931 613.531 171.199 587.705 c 0
EndSplineSet
Fore
865 447 m 0
 865 194 563 0 255 0 c 2
 133 0 l 2
 122 0 118 4 118 10 c 0
 118 27 152 58 185 63 c 1
 253 224 306 413 318 619 c 1
 252 617 199 603 173 589 c 0
 117 556 154 515 78 485 c 0
 69 482 60 480 54 480 c 0
 44 480 38 484 38 491 c 0
 38 505 61 573 150 625 c 2
 159 630 l 2
 202 653 279 683 396 683 c 2
 500 683 l 2
 687 683 865 625 865 447 c 0
317 64 m 2
 457 64 706.896 117.027 762 330 c 0
 768.987 357.003 772 382 772 405 c 0
 772 567 609 619 438 619 c 2
 408 619 l 1
 391 413 333 224 263 64 c 1
 317 64 l 2
EndSplineSet
EndChar
StartChar: E
Encoding: 69 69 6
Width: 615
Flags: HMW
Back
525.26 564.517 m 2
 531.69 575.111 536.05 593.253 526.4 609.968 c 0
 521.516 618.428 513.365 624.814 504.338 627.756 c 0
 481.5 635.199 457.104 638.842 432.699 638.842 c 0
 376.519 638.842 336.021 623.28 316.209 611.842 c 0
 309.727 608.1 302.592 603.117 296.119 597.053 c 0
 284.311 585.988 270.227 567.02 263.681 540.837 c 0
 257.285 515.253 260.342 493.356 270.896 475.073 c 0
 300.233 424.259 381.325 407.73 447.632 407.73 c 0
 466.844 407.73 468.621 393.399 451.599 375.742 c 0
 434.576 358.085 405.169 343.755 385.957 343.755 c 0
 276.735 343.755 206.116 378.209 180.368 422.808 c 0
 167.55 445.011 163.333 472.48 171.646 505.735 c 0
 177.708 529.981 192.668 565.636 232.649 603.097 c 0
 247.644 617.146 268.326 633.389 294.909 648.736 c 0
 365.059 689.236 437.345 702.817 494.374 702.817 c 0
 526.211 702.817 555.452 698.182 582.018 689.522 c 0
 598.648 684.103 609.912 674.387 616.928 662.233 c 0
 636.241 628.781 615.486 592.482 610.229 583.823 c 2
 605.095 575.692 l 2
 594.418 558.804 566.809 540.915 543.467 535.764 c 0
 520.124 530.611 509.845 540.138 520.521 557.026 c 2
 525.26 564.517 l 2
248.301 308.197 m 0
 167.854 261.753 149.508 188.116 146.29 175.247 c 0
 139.904 149.7 143.084 127.292 153.885 108.585 c 0
 180.417 62.627 248.461 44.3232 307.914 44.3232 c 0
 339.371 44.3232 377.188 51.4902 413.894 72.6816 c 0
 436.143 85.5273 459.925 104.463 482.646 132.313 c 0
 496.92 149.81 525.818 165.943 547.151 168.326 c 0
 568.484 170.71 574.215 158.444 559.941 140.948 c 0
 527.882 101.651 485.178 64.6455 435.193 35.7881 c 0
 397.644 14.1084 327.544 -19.6523 246.239 -19.6523 c 0
 172.535 -19.6523 94.8027 1.85059 63.3564 56.3184 c 0
 50.3184 78.9033 45.9043 106.735 54.2568 140.146 c 0
 74.6943 221.897 139.68 294.678 227.001 345.092 c 0
 304.04 389.57 383.534 407.73 447.632 407.73 c 0
 466.844 407.73 468.621 393.399 451.599 375.742 c 0
 434.576 358.085 405.169 343.755 385.957 343.755 c 0
 320.509 343.755 272.028 321.896 248.301 308.197 c 0
EndSplineSet
Fore
516 545 m 0
 516 557 532 568 532 591 c 0
 532 629 481 639 433 639 c 0
 307 639 260 572 260 517 c 0
 260 430 373 408 448 408 c 0
 458 408 463 404 463 398 c 0
 463 380 422 344 386 344 c 0
 220 344 143 217 143 150 c 0
 143 85 214 44 308 44 c 0
 336 44 415 49 483 132 c 0
 494 146 526 169 552 169 c 0
 562 169 568 165 568 158 c 0
 568 136 424 -20 246 -20 c 0
 162 -20 50 13 50 106 c 0
 50 158 94 283 261 363 c 1
 203 384 167 422 167 474 c 0
 167 596 336 703 494 703 c 0
 548 703 625 693 625 632 c 0
 625 575 568 534 532 534 c 0
 522 534 516 538 516 545 c 0
EndSplineSet
EndChar
StartChar: F
Encoding: 70 70 7
Width: 816
Flags: HMW
Back
129.464 85.4629 m 0
 152.332 45.8516 194.069 29.5508 233.032 30.8789 c 0
 235.92 30.9775 236.938 31.292 237.128 31.334 c 0
 237.856 31.4951 235.727 30.7578 234.65 30.1367 c 1
 237.223 31.6221 242.364 37.2812 245.762 41.4053 c 0
 249.885 46.4111 254.287 52.7041 258.227 59.6084 c 0
 305.84 143.055 346.569 229.079 379.76 316.526 c 0
 419.366 420.881 447.331 526.717 462.974 631.812 c 0
 465.077 645.943 487.546 666.005 513.127 676.593 c 0
 538.709 687.181 557.764 684.305 555.661 670.174 c 0
 539.671 562.744 511.062 454.288 470.267 346.802 c 0
 436.137 256.88 394.134 168.071 344.659 81.3643 c 0
 338.628 70.7939 331.447 60.2256 322.689 49.5928 c 0
 307.601 31.2725 286.93 11.1279 255.95 -6.75781 c 0
 229.426 -22.0713 208.555 -27.6162 198.6 -29.8242 c 0
 190.75 -31.5664 182.972 -32.7471 174.07 -33.0498 c 0
 133.549 -34.4307 71.916 -23.9287 38.9365 33.1963 c 0
 37.1387 36.3105 35.459 39.5254 33.9023 42.8408 c 0
 28.8906 53.5156 45.2539 73.5947 70.4277 87.6592 c 0
 95.6016 101.725 120.101 104.476 125.112 93.8008 c 0
 126.46 90.9297 127.913 88.1494 129.464 85.4629 c 0
820.301 605.315 m 0
 811.859 619.937 765.691 619.005 735.291 619.005 c 2
 417.198 619.005 l 2
 374.915 619.005 343.522 607.471 327.151 598.699 c 0
 327.146 598.695 355.877 615.352 323.977 596.934 c 0
 313.583 590.933 307.664 585.342 304.6 582.38 c 0
 293.673 571.817 280.684 553.827 274.649 529.691 c 0
 270.959 514.929 247.348 495.085 221.947 485.397 c 0
 196.546 475.709 178.925 479.828 182.615 494.59 c 0
 188.383 517.657 202.031 550.659 239.123 586.514 c 0
 254.088 600.979 275.416 618.089 302.677 633.827 c 0
 310.651 638.432 310.882 638.435 312.948 639.542 c 0
 372.119 671.244 431.929 682.98 478.873 682.981 c 2
 796.966 682.98 l 2
 831.084 682.98 895.044 684.923 910.828 657.582 c 0
 911.398 656.595 912.796 653.449 913.152 652.344 c 0
 915.35 645.526 915.432 645.331 913.171 632.395 c 0
 910.674 618.103 885.87 597.789 860.469 588.101 c 0
 835.067 578.413 817.998 582.744 821.138 597.293 c 0
 822.022 601.395 821.795 601.373 821.11 603.497 c 0
 820.987 603.881 820.814 604.426 820.301 605.315 c 0
683.719 299.664 m 1
 394.165 299.664 l 2
 374.945 299.664 373.168 314 390.196 331.664 c 0
 407.225 349.328 436.643 363.664 455.861 363.664 c 2
 745.416 363.664 l 2
 757.733 363.664 762.968 358.687 760.602 349.222 c 2
 757.974 338.707 l 2
 754.282 323.939 730.663 304.088 705.252 294.396 c 0
 679.841 284.705 662.214 288.824 665.905 303.593 c 2
 668.534 314.106 l 1
 679.989 321.49 692.688 324.248 696.879 320.262 c 0
 701.07 316.275 695.175 307.048 683.719 299.664 c 1
EndSplineSet
Fore
914 642 m 0
 914 607 858 583 837 583 c 0
 827 583 821 587 821 594 c 2
 821 600 l 2
 821 618 786 619 735 619 c 2
 547 619 l 1
 530 527 504 440 476 364 c 1
 745 364 l 2
 758 364 763 359 761 349 c 2
 758 339 l 2
 753 318 709 289 681 289 c 0
 671 289 666 293 665 300 c 1
 452 300 l 1
 395 162 336.933 67.0551 323 50 c 0
 275.771 -7.81327 216 -33 162 -33 c 0
 73 -33 33 35 33 47 c 0
 33 68 82 100 110 100 c 0
 118 100 123 98 125 94 c 0
 148 45 201 30 227 30 c 0
 231 30 234 31 236 31 c 1
 257 48 330 186 380 317 c 0
 418 417 445 518 461 619 c 1
 417 619 l 2
 364 619 291.632 599.853 275 530 c 0
 270 509 225 480 198 480 c 0
 188 480 182 484 182 491 c 0
 182 492 182 493 183 495 c 1
 199 558 253 605 303 634 c 2
 313 640 l 2
 372 671 432 683 479 683 c 2
 816 683 l 2
 863 683 914 681 914 642 c 0
EndSplineSet
EndChar
StartChar: G
Encoding: 71 71 8
Width: 686
Flags: HMW
Back
567.944 563.962 m 0
 573.596 574.484 578.16 592.439 568.506 609.161 c 0
 565.884 613.702 559.138 622.824 546.336 626.636 c 0
 518.865 634.813 489.719 638.842 460.312 638.842 c 0
 417.174 638.842 357.136 632.425 303.695 601.571 c 0
 228.492 558.153 185.809 476.288 167.539 403.212 c 0
 145.916 316.721 164.452 251.988 186.011 214.646 c 0
 215.125 164.216 264.116 134.961 323.392 132.449 c 0
 372.116 130.384 407.421 147.164 424.77 157.18 c 0
 467.643 181.932 524.937 239.32 546.114 324.031 c 0
 549.805 338.794 573.416 358.638 598.817 368.325 c 0
 624.219 378.014 641.839 373.896 638.148 359.133 c 0
 617.005 274.559 552.736 181.869 446.069 120.286 c 0
 382.099 83.3525 316.52 66.085 258.697 68.5361 c 0
 179.153 71.9062 125.438 110.493 95.4824 162.38 c 0
 57.8525 227.56 60.0225 306.179 75.5059 368.11 c 0
 115.82 529.369 227.949 607.031 282.396 638.466 c 0
 323.908 662.433 407.475 702.817 521.986 702.817 c 0
 558.247 702.817 592.041 697.933 623.134 688.677 c 0
 640.409 683.533 651.909 673.768 659.034 661.427 c 0
 674.544 634.562 664.439 604.401 655.27 587.329 c 0
 639.094 557.215 618.264 527.702 592.128 499.319 c 0
 575.881 481.676 546.567 466.788 526.695 466.087 c 0
 506.823 465.386 503.881 479.137 520.127 496.78 c 0
 538.073 516.27 554.615 539.147 567.944 563.962 c 0
333.06 -52.875 m 0
 337.215 -52.875 348.85 -52.751 361.029 -50.0352 c 0
 369.136 -48.2275 375.118 -45.9189 380.337 -42.9053 c 0
 390.107 -37.2646 390.474 -35.8994 393.997 -32.7979 c 0
 466.915 31.3896 512.951 191.378 546.114 324.031 c 0
 549.805 338.794 573.416 358.638 598.817 368.325 c 0
 624.219 378.014 641.839 373.896 638.148 359.133 c 0
 583.917 142.208 535.695 29.9004 453.123 -42.7861 c 0
 435.696 -58.126 417.943 -70.3848 401.637 -79.7988 c 0
 375.643 -94.8076 347.578 -105.602 322.654 -111.159 c 0
 304.732 -115.155 287.91 -116.851 271.384 -116.851 c 0
 203.56 -116.851 141.64 -103.697 87.4609 -78.8262 c 0
 74.876 -73.0498 82.8184 -54.8193 105.189 -38.1338 c 0
 127.561 -21.4482 155.931 -12.5947 168.516 -18.3721 c 0
 197.854 -31.8389 253.937 -52.875 333.06 -52.875 c 0
EndSplineSet
Fore
158 -16 m 0
 172 -16 226 -53 333 -53 c 0
 370 -53 384.988 -40.987 394 -33 c 0
 436.945 5.06215 471 76 498 155 c 1
 428 101 344 68 268 68 c 0
 146 68 66 153 66 287 c 0
 66 498 262 703 522 703 c 0
 558 703 592 698 623 689 c 0
 654 680 667 656 667 631 c 0
 667 586 616 525 592 499 c 0
 578 484 547 466 525 466 c 0
 515 466 510 470 510 477 c 0
 510 494 573 543 573 591 c 0
 573 612 559.98 622.932 546 627 c 0
 518.962 634.868 490 639 460 639 c 0
 210 639 158 415 158 328 c 0
 158 218 223 132 332 132 c 0
 455 132 527 249 546 324 c 0
 551.063 343.984 596 374 623 374 c 0
 633 374 639 370 639 363 c 0
 639 362 638 360 638 359 c 0
 592 176 528 -65 323 -111 c 0
 305 -115 288 -117 271 -117 c 0
 204 -117 142 -104 87 -79 c 0
 83 -77 81 -74 81 -70 c 0
 81 -51 129 -16 158 -16 c 0
EndSplineSet
EndChar
StartChar: H
Encoding: 72 72 9
Width: 975
Flags: HMW
Back
314.689 369.522 m 0
 331.521 436.854 342.323 504.122 346.948 570.478 c 0
 347.648 580.531 345.509 589.927 341.071 597.612 c 0
 331.846 613.593 315.245 619.012 303.628 619.005 c 0
 286.473 618.995 235.436 618.153 197.255 597.576 c 0
 197.198 597.546 229.23 616.307 194.21 595.878 c 0
 187.737 592.102 188.783 592.627 185.438 590.287 c 0
 179.191 585.918 185.125 590.121 182.429 588.116 c 0
 152.39 565.779 131.37 529.316 127.61 522.819 c 0
 117.979 506.175 90.8516 487.883 67.0586 481.987 c 0
 43.2666 476.093 31.7744 484.817 41.4062 501.462 c 0
 58.1797 530.446 86.7129 571.781 137.103 609.25 c 0
 138.792 610.506 139.465 611.09 145.712 615.459 c 0
 156.078 622.71 158.298 623.979 172.91 632.771 c 0
 181.589 637.993 180.571 637.083 182.501 638.123 c 0
 249.078 674.003 312.568 682.951 365.261 682.98 c 0
 374.808 682.986 413.05 682.011 431.6 649.879 c 0
 437.844 639.062 440.927 626.059 439.884 611.102 c 0
 435.144 543.082 424.066 474 406.723 404.624 c 0
 373.36 271.176 329.681 137.844 276.025 5.77539 c 0
 269.642 -9.9375 244.283 -29.2275 219.422 -37.2822 c 0
 194.561 -45.3369 179.563 -39.1221 185.947 -23.4092 c 0
 238.711 106.464 281.771 237.851 314.689 369.522 c 0
747.757 266.896 m 0
 730.604 198.289 719.535 129.744 714.697 62.1113 c 0
 713.968 51.9209 716.12 42.3564 720.584 34.625 c 0
 729.312 19.5068 745.068 13.9414 756.343 14.4307 c 0
 798.25 16.25 817.422 20.7754 824.351 24.2354 c 0
 824.386 24.2529 817.736 20.459 823.154 23.5869 c 1
 820.706 22.1738 817.891 20.1592 817.35 19.418 c 1
 819.349 22.1562 821.519 27.1045 822.832 32.3594 c 0
 826.522 47.1211 850.133 66.9648 875.534 76.6523 c 0
 900.936 86.3408 918.556 82.2227 914.865 67.46 c 0
 910.948 51.79 903.659 40.1172 898.367 32.8672 c 0
 885.997 15.9238 868.626 0.648438 844.454 -13.3066 c 0
 839.036 -16.4355 834.598 -18.6992 832.115 -19.9395 c 0
 806.533 -32.7129 770.059 -46.3467 698.17 -49.4678 c 0
 661.518 -51.0586 639.959 -34.7949 630.056 -17.6416 c 0
 623.755 -6.72754 620.684 6.43945 621.764 21.5371 c 0
 626.721 90.8213 638.064 161.163 655.723 231.796 c 0
 689.56 367.141 733.711 502.372 787.841 636.354 c 0
 794.184 652.054 819.517 671.354 844.389 679.435 c 0
 869.261 687.516 884.299 681.332 877.956 665.633 c 0
 824.697 533.807 781.155 400.491 747.757 266.896 c 0
200.442 275.421 m 2
 181.224 275.421 179.445 289.757 196.474 307.421 c 0
 213.502 325.085 242.92 339.421 262.14 339.421 c 2
 700.977 339.422 l 2
 720.195 339.422 721.973 325.086 704.944 307.422 c 0
 687.916 289.758 658.498 275.421 639.279 275.421 c 2
 200.442 275.421 l 2
EndSplineSet
Fore
184 -31 m 0
 184 -22 241 103 290 275 c 1
 200 275 l 2
 190 275 185 279 185 285 c 0
 185 303 226 339 262 339 c 2
 307 339 l 1
 331 433 347 536 347 574 c 0
 347 603 324 619 304 619 c 0
 125 619 162 506 67 482 c 0
 62 481 58 480 54 480 c 0
 44 480 38 484 38 491 c 0
 38 503 79 566 137 609 c 2
 146 615 l 2
 217 666 294 683 365 683 c 0
 416 683 440 652 440 617 c 0
 440 563 416 437 390 339 c 1
 685 339 l 1
 727 486 777.1 607.961 788 636 c 0
 798.093 661.964 842 683 865 683 c 0
 874 683 880 680 880 673 c 0
 880 671 879 668 878 666 c 0
 761 377 715 139 715 58 c 0
 715 32 734 14 755 14 c 0
 774 14 807 18 819 22 c 1
 823 32 829 59 876 77 c 0
 885 80 893 82 900 82 c 0
 909 82 915 78 915 71 c 0
 915 48 872 -42 698 -49 c 2
 696 -50 695 -50 693 -50 c 0
 647 -50 622 -20 622 16 c 0
 622 64 643 185 669 282 c 1
 659 278 649 275 639 275 c 2
 371 275 l 1
 331 141 287 32 276 6 c 0
 266 -20 222 -40 199 -40 c 0
 190 -40 184 -37 184 -31 c 0
EndSplineSet
EndChar
StartChar: I
Encoding: 73 73 10
Width: 643
Flags: HMW
Back
371.739 619.005 m 2
 285.688 619.005 213.552 617.172 168.74 601.68 c 0
 162.026 599.359 158.253 597.427 156.871 596.629 c 0
 151.553 593.559 146.156 584.02 144.178 579.85 c 0
 142.087 575.443 140.134 570.143 138.619 564.085 c 0
 134.929 549.322 111.317 529.479 85.917 519.791 c 0
 60.5156 510.103 42.8945 514.221 46.585 528.983 c 0
 48.6797 537.361 51.5488 545.499 55.3945 553.603 c 0
 69.3154 582.937 96.084 610.725 135.571 633.522 c 0
 153.828 644.062 171.706 651.679 188.252 657.399 c 0
 268.771 685.236 373.985 682.98 433.414 682.98 c 2
 697.911 682.98 l 2
 717.123 682.98 718.899 668.649 701.878 650.992 c 0
 684.855 633.335 655.448 619.005 636.236 619.005 c 2
 371.739 619.005 l 2
501.512 620.632 m 1
 501.396 620.565 503.493 621.905 503.312 621.757 c 0
 452.405 580.036 407.668 381.854 401.987 359.133 c 0
 366.737 218.133 337.82 139.85 287.224 82.9844 c 0
 271.831 65.6846 251.098 46.8232 222.778 30.4736 c 0
 184.378 8.30273 147.205 0.18457 117.846 0.18457 c 0
 98.6338 0.18457 96.8564 14.5146 113.879 32.1719 c 0
 130.901 49.8301 160.309 64.1602 179.521 64.1602 c 0
 185.723 64.1602 197.76 65.2197 201.479 67.3672 c 0
 204.356 69.0293 208.966 73.4434 213.577 78.627 c 0
 258.603 129.231 286.89 231.776 309.954 324.032 c 0
 350.123 484.705 379.653 579.018 449.688 636.416 c 0
 458.375 643.536 468.692 650.876 480.212 657.526 c 0
 504.834 671.741 523.991 676.903 533.332 679.098 c 0
 545.414 681.935 555.943 682.98 565.663 682.98 c 0
 584.875 682.98 586.651 668.65 569.63 650.993 c 0
 552.607 633.336 523.2 619.005 503.988 619.005 c 0
 500.773 619.005 498.227 618.731 496.596 618.349 c 0
 496.323 618.284 498.979 619.17 501.512 620.632 c 1
477.087 64.1592 m 2
 495.112 64.1592 508.309 66.2178 516.987 68.0938 c 0
 525.324 69.8975 532.556 72.7744 532.569 72.7822 c 1
 532.5 72.7422 530.468 71.5889 529.981 71.0088 c 1
 532.41 73.9014 534.989 79.4629 536.354 84.9199 c 0
 540.044 99.6826 563.655 119.525 589.057 129.214 c 0
 614.458 138.901 632.078 134.783 628.387 120.021 c 0
 622.871 97.959 609.706 82.5186 606.142 78.2725 c 0
 599.313 70.1416 582.613 52.4834 553.869 35.8887 c 0
 525.975 19.7842 497.913 11.1406 477.701 6.77051 c 0
 455.354 1.9375 434.828 0.183594 415.412 0.183594 c 2
 18.6562 0.183594 l 2
 -0.555664 0.183594 -2.33301 14.5146 14.6895 32.1719 c 0
 31.7119 49.8291 61.1191 64.1592 80.3311 64.1592 c 2
 477.087 64.1592 l 2
EndSplineSet
Fore
372 619 m 2
 286 619 191 616 157 597 c 0
 134 584 153 545 86 520 c 0
 77 516 68 515 62 515 c 0
 52 515 46 518 46 525 c 0
 46 548 82.0524 620.847 188 657 c 0
 258.035 680.899 345 683 406 683 c 2
 698 683 l 2
 709 683 713 679 713 673 c 0
 713 655 673 619 636 619 c 2
 500 619 l 1
 450 572 408 381 402 359 c 0
 374 245 344 134 268 64 c 1
 477 64 l 2
 500 64 522 68 531 72 c 1
 536 80 538 110 589 129 c 0
 598 133 607 134 613 134 c 0
 623 134 629 131 629 124 c 0
 629 77 536 0 415 0 c 2
 19 0 l 2
 8 0 4 4 4 10 c 0
 4 28 44 64 80 64 c 2
 180 64 l 2
 200 64 204 68 214 79 c 0
 317 195 306 486 432 619 c 1
 372 619 l 2
EndSplineSet
EndChar
StartChar: J
Encoding: 74 74 11
Width: 781
Flags: HMW
Back
609.305 619.005 m 2
 574.021 619.005 523.407 611.924 478.413 585.947 c 0
 410.44 546.703 395.103 484.297 392.367 473.354 c 0
 388.677 458.592 365.065 438.748 339.664 429.06 c 0
 314.264 419.372 296.643 423.49 300.333 438.252 c 0
 318.837 512.268 378.108 577.228 457.113 622.841 c 0
 531.69 665.897 608.624 682.98 670.98 682.98 c 2
 910.848 682.98 l 2
 930.059 682.98 931.836 668.65 914.813 650.993 c 0
 897.791 633.336 868.384 619.005 849.173 619.005 c 2
 609.305 619.005 l 2
175.59 20.498 m 0
 203.056 -27.0771 262.024 -52.875 325.777 -52.875 c 0
 353.254 -52.875 386.071 -46.9297 417.936 -28.5342 c 0
 456.228 -6.42578 507.523 44.1631 526.253 119.08 c 0
 578.55 328.267 626.893 511.58 735.792 609.389 c 0
 750.612 622.699 768.315 636.06 788.515 647.722 c 0
 838.643 676.663 879.402 680.626 880.287 680.755 c 0
 890.816 682.288 900.928 682.98 910.848 682.98 c 0
 930.059 682.98 931.836 668.65 914.813 650.993 c 0
 897.791 633.336 868.384 619.005 849.173 619.005 c 0
 841.63 619.005 835.861 618.364 832.255 617.839 c 0
 821.12 616.218 814.065 613.282 809.814 610.827 c 0
 806.806 609.091 802.484 606.184 796.364 600.688 c 0
 705.735 519.289 648.972 276.921 618.286 154.182 c 0
 597.008 69.0664 530.987 -12.4551 439.235 -65.4277 c 0
 404.429 -85.5225 339.438 -116.851 264.103 -116.851 c 0
 180.394 -116.851 114.647 -83.0156 85.0615 -31.7686 c 0
 67.5498 -1.43652 61.5713 36.0059 72.4824 79.6475 c 0
 76.1729 94.4102 99.7832 114.254 125.185 123.941 c 0
 150.586 133.63 168.206 129.512 164.516 114.749 c 0
 155.645 79.2646 160.335 46.9209 175.59 20.498 c 0
EndSplineSet
Fore
160 80 m 0
 160 2 230 -53 326 -53 c 0
 446 -53 509.597 54.1006 526 119 c 0
 572 301 619 513 747 619 c 1
 609 619 l 2
 534 619 421 586 392 473 c 0
 386.875 453.032 343 424 316 424 c 0
 306 424 300 428 300 435 c 2
 300 438 l 1
 334 571 508 683 671 683 c 2
 911 683 l 2
 921 683 926 679 926 673 c 0
 926 655 886 619 849 619 c 0
 827 619 812 615 796 601 c 0
 706 519 649.363 276.908 618 154 c 0
 581 9 414 -117 264 -117 c 0
 158 -117 67 -60 67 37 c 0
 67 50 69 65 72 80 c 0
 78 100 122 129 149 129 c 0
 159 129 165 125 165 118 c 0
 165 115 160 103 160 80 c 0
EndSplineSet
EndChar
StartChar: K
Encoding: 75 75 12
Width: 868
Flags: HMW
Back
180.014 389.885 m 0
 199.57 468.111 210.953 546.254 213.934 622.969 c 1
 187.336 609.55 l 2
 161.78 596.656 139.093 595.982 136.694 608.047 c 0
 134.296 620.11 153.09 640.366 178.646 653.26 c 2
 256.787 692.684 l 2
 270.553 699.629 282.366 702.975 292.558 702.812 c 0
 302.748 702.65 307.727 699.039 307.632 691.877 c 0
 306.47 604.54 294.554 515.012 272.048 424.986 c 0
 238.751 291.799 195.136 158.727 141.546 26.9209 c 0
 135.156 11.2061 109.794 -8.08203 84.9346 -16.1338 c 0
 60.0742 -24.1846 45.084 -17.9648 51.4727 -2.25098 c 0
 104.169 127.355 147.162 258.478 180.014 389.885 c 0
733.86 632.471 m 0
 729.376 640.239 719.428 649.529 702.694 649.529 c 0
 672.989 649.529 589.816 616.539 501.742 565.689 c 0
 393.379 503.127 346.995 455.451 342.388 437.021 c 0
 336.859 414.906 358.994 335.899 420.464 229.432 c 0
 452.422 174.078 543.819 36.9229 602.82 33.668 c 0
 603.037 33.6553 556.882 33.6357 603.921 33.6357 c 0
 625.652 33.6357 672.127 37.332 707.297 57.6377 c 0
 728.078 69.6357 741.568 86.1074 747.178 108.544 c 0
 750.678 122.544 768.938 137.603 787.938 142.157 c 0
 806.939 146.712 819.519 139.046 816.019 125.045 c 0
 811.584 107.306 795.055 59.0684 728.616 20.7109 c 0
 677.221 -8.96289 618.037 -19.7061 570.565 -19.7061 c 0
 523.526 -19.7061 565.808 -19.5771 565.749 -19.5742 c 0
 482.464 -14.9785 392.155 124.488 353.79 190.938 c 0
 321.553 246.775 260.313 367.585 273.547 420.521 c 0
 289.075 482.633 408.73 561.226 480.422 602.617 c 0
 553.412 644.757 672.422 702.871 736.05 702.871 c 0
 744.295 702.871 782.571 702.076 800.534 670.965 c 0
 807.956 658.109 810.524 641.94 805.812 623.095 c 0
 802.312 609.095 784.052 594.036 765.052 589.481 c 0
 746.052 584.928 733.472 592.594 736.972 606.594 c 0
 739.101 615.109 738.653 624.169 733.86 632.471 c 0
EndSplineSet
Fore
50 -9 m 0
 50 3 203 341 214 623 c 1
 187 610 l 2
 174 603 161 599 152 599 c 0
 144 599 136 602 136 610 c 0
 136 622 155 641 179 653 c 2
 257 693 l 2
 271 700 283 703 292 703 c 0
 302 703 308 699 308 692 c 0
 308 463 197 164 142 27 c 0
 131 1 88 -19 65 -19 c 0
 56 -19 50 -16 50 -9 c 0
736 602 m 0
 736 608 738 608 738 616 c 0
 738 637 721 650 703 650 c 0
 636 650 342 493 342 429 c 0
 342 338 515 38 604 34 c 0
 642 34 730.765 44.0584 747 109 c 0
 752 129 780 143 799 143 c 0
 809 143 817 139 817 130 c 0
 817 129 816 127 816 125 c 1
 796 46 690 -20 567 -20 c 0
 445 -13 272 306 272 404 c 0
 272 410 272 415 274 421 c 0
 299 521 629 703 736 703 c 0
 784 703 809 672 809 641 c 0
 809 609 780 588 755 588 c 0
 744 588 736 593 736 602 c 0
EndSplineSet
EndChar
StartChar: L
Encoding: 76 76 13
Width: 790
Flags: HMW
Back
630.728 16.375 m 0
 585.074 -9.98242 543.037 -19.6377 511.78 -19.6377 c 0
 388.675 -19.6377 281.947 33.5527 168.174 33.5527 c 0
 159.176 33.5527 153.6 31.6211 153.306 31.5156 c 0
 152.678 31.292 154.213 31.9775 154.597 32.1992 c 1
 154.579 32.1895 155.416 32.71 155.408 32.7041 c 0
 153.2 31.0898 149.731 27.4443 146.772 23.7021 c 0
 132.248 5.33203 100.627 -13.5605 76.1895 -18.4697 c 0
 51.752 -23.3789 43.7061 -12.4541 58.2305 5.91602 c 0
 69.9912 20.79 85.5645 36.3525 106.48 51.6387 c 0
 116.439 58.917 124.994 64.2988 133.296 69.0918 c 0
 146.438 76.6797 161.948 84.3359 179.3 90.5254 c 0
 203.911 99.3047 224.349 102.445 241.873 102.445 c 0
 364.979 102.445 471.707 49.2549 585.48 49.2549 c 0
 591.953 49.2549 605.039 50.7344 609.427 53.2676 c 0
 610.273 53.7568 616.354 59.0459 621.607 66.6406 c 0
 630.191 79.0508 633.536 91.2539 634.604 95.5264 c 0
 638.344 110.483 664.25 132.151 692.431 143.891 c 0
 720.611 155.631 740.448 153.02 736.709 138.062 c 0
 731.321 116.513 721.447 100.351 714.354 90.0938 c 0
 696.727 64.6084 668.584 38.2314 630.728 16.375 c 0
568.925 598.532 m 0
 553.502 625.244 527.648 633.91 507.868 633.909 c 0
 494.042 633.909 484.744 632.073 483.61 631.869 c 0
 475.018 630.321 467.561 628.012 461.993 624.798 c 0
 458.296 622.663 457.588 622.922 447.097 613.402 c 0
 391.432 562.89 337.902 451.662 293.66 274.693 c 0
 274.875 199.554 235.323 94.6533 133.297 10.2598 c 0
 110.511 -8.58789 78.2227 -21.8467 61.2236 -19.3359 c 0
 44.2246 -16.8242 48.9209 0.509766 71.7061 19.3574 c 0
 118.994 58.4736 165.739 128.894 191.555 232.157 c 0
 238.15 418.54 294.494 540.25 377.45 615.527 c 0
 394.718 631.197 415.925 647.391 440.693 661.69 c 0
 474.366 681.132 509.746 693.685 539.056 698.964 c 0
 553.892 701.637 567.865 702.802 581.567 702.802 c 0
 636.541 702.803 661.3 671.26 669.697 656.714 c 0
 679.889 639.063 689.18 609.2 678.831 567.802 c 0
 675.092 552.845 649.186 531.178 621.005 519.438 c 0
 592.823 507.697 572.987 510.309 576.727 525.266 c 0
 583.48 552.282 580.326 578.785 568.925 598.532 c 0
EndSplineSet
Fore
66 -20 m 0
 53 -20 51 -14 51 -10 c 0
 51 3 77 28 99 46 c 1
 136 87 170.912 149.022 192 232 c 0
 238 413 299 580 441 662 c 0
 488 689 537 703 582 703 c 0
 645 703 683 660 683 603 c 0
 683 569 676 542 621 519 c 0
 609 514 599 512 591 512 c 0
 582 512 576 515 576 522 c 0
 576 528 580 534 580 553 c 0
 580 599 551 634 508 634 c 0
 470 634 458.045 622.951 447 613 c 0
 391.225 562.75 339 452 294 275 c 0
 275.952 204.012 248 146 217 100 c 1
 225 102 233 102 242 102 c 0
 365 102 472 49 585 49 c 0
 607 49 612 53 622 67 c 0
 638 90 629.044 117.893 692 144 c 0
 704.008 148.98 715 151 722 151 c 0
 732 151 737 148 737 141 c 2
 737 138 l 1
 716 56 602 -20 512 -20 c 0
 389 -20 282 34 168 34 c 0
 165 34 162 33 160 33 c 1
 133 8 96 -20 66 -20 c 0
EndSplineSet
EndChar
StartChar: M
Encoding: 77 77 14
Width: 1337
Flags: HMW
Back
605.054 268.29 m 0
 619.892 227.048 638.116 187.699 659.564 150.548 c 0
 666.994 137.678 674.812 125.072 683.009 112.743 c 1
 650.622 84.0977 l 1
 635.85 34.3535 l 1
 629.149 34.3652 623.894 36.1738 621.164 39.917 c 0
 606.116 60.5596 592.166 82.0166 579.341 104.23 c 0
 557.301 142.406 538.585 182.817 523.348 225.172 c 0
 486.463 327.698 454.348 432.682 427.076 539.869 c 1
 409.157 454.232 384.517 367.97 353.392 282.454 c 0
 347.808 267.113 342.019 251.8 336.027 236.521 c 0
 297.912 139.331 223.982 -55.377 143.34 -50.125 c 0
 126.93 -49.0566 111.284 -45.8408 96.7246 -40.542 c 0
 92.3164 -38.9375 88.0068 -37.1406 83.8066 -35.1533 c 0
 71.0615 -29.124 59.7715 -21.9072 51.3262 -13.0352 c 0
 42.4814 -3.74414 44.9023 24.6514 56.7295 50.3477 c 0
 68.5566 76.043 85.333 89.3555 94.1787 80.0645 c 0
 99.7783 74.1826 109.654 67.4932 120.938 62.1543 c 0
 124.64 60.4023 128.454 58.8115 132.368 57.3867 c 0
 145.293 52.6826 159.311 49.792 174.019 48.834 c 0
 209.986 46.4912 242.957 115.708 298.343 256.939 c 0
 303.574 270.279 308.62 283.627 313.48 296.98 c 0
 356.721 415.782 385.557 535.384 399.504 655.522 c 1
 399.744 655.44 l 1
 400.009 655.44 l 1
 399.888 667.351 415.538 684.364 436.77 694.795 c 0
 459.527 705.976 480.122 705.381 482.739 693.466 c 0
 514.757 547.714 555.589 405.778 605.054 268.29 c 0
1156.98 205.103 m 0
 1153.27 155.714 1154.81 107.301 1161.55 60.6504 c 0
 1162.13 56.6357 1163.39 53.0352 1165.18 49.9375 c 0
 1171.99 38.1416 1183.61 36.7695 1187.56 36.6963 c 1
 1199.79 42.8691 l 2
 1225.35 55.7627 1248.03 56.4355 1250.43 44.3721 c 0
 1252.83 32.3086 1234.04 12.0527 1208.48 -0.84082 c 2
 1191.28 -9.51953 l 2
 1169.23 -20.6416 1149.47 -25.5664 1134.98 -26.8809 c 0
 1102.13 -29.8623 1083.2 -17.1279 1074.66 -2.3291 c 0
 1071.73 2.73926 1069.72 8.51465 1068.78 14.9902 c 0
 1061.8 63.2188 1060.2 113.332 1064.06 164.627 c 0
 1074.03 297.324 1091.41 431.175 1116.13 565.614 c 1
 1196.69 653.064 l 1
 1223.41 680.233 l 1
 1223.4 679.367 1223.3 678.451 1223.1 677.487 c 0
 1190.82 519.128 1168.73 361.343 1156.98 205.103 c 0
829.378 295.695 m 0
 954.043 425.59 1075.86 557.837 1194.71 692.295 c 0
 1209.43 708.958 1222.28 704.906 1223.37 683.251 c 0
 1224.46 661.596 1213.4 630.497 1198.67 613.834 c 0
 1078.75 478.161 955.905 344.802 830.256 213.883 c 0
 772.105 153.293 711.299 95.3838 648.108 40.3662 c 0
 633.405 27.5645 622.598 36.7656 623.985 60.9053 c 0
 625.373 85.0449 638.433 115.026 653.136 127.828 c 0
 714.536 181.287 773.39 237.359 829.378 295.695 c 0
EndSplineSet
Fore
829 296 m 2
 1195 692 l 2
 1201 699 1207 703 1211 703 c 0
 1219 703 1223 694 1223 680 c 0
 1223 659 1180 507 1157 205 c 0
 1156 188 1155 171 1155 154 c 0
 1155 69 1160 37 1188 37 c 1
 1200 43 l 2
 1213 50 1226 53 1235 53 c 0
 1243 53 1251 50 1251 42 c 0
 1251 30 1233 11 1208 -1 c 2
 1191 -10 l 2
 1169 -21 1145 -27 1125 -27 c 0
 1096 -27 1073 -14 1069 15 c 0
 1064 46 1062 78 1062 111 c 0
 1062 191 1083 375 1107 514 c 1
 830 214 l 2
 772 153 711 95 648 40 c 0
 643 36 639 35 636 35 c 0
 629 35 624 36 621 40 c 0
 582 94 548 157 523 225 c 0
 486 328 454 433 427 540 c 1
 409 454 385 368 353 282 c 2
 336 237 l 2
 298 141 226 -50 147 -50 c 0
 113 -50 71 -33 51 -13 c 0
 47 -9 45 -2 45 6 c 0
 45 36 70 83 87 83 c 0
 93 83 123 49 176 49 c 0
 211 49 244 118 298 257 c 2
 313 297 l 2
 357 416 386 534 400 655 c 0
 400 677 443 703 467 703 c 0
 475 703 481 700 483 693 c 0
 515 548 556 406 605 268 c 0
 621 223 642 179 666 139 c 1
 723 189 777 242 829 296 c 2
EndSplineSet
EndChar
StartChar: N
Encoding: 78 78 15
Width: 933
Flags: HMW
Back
884.112 643.388 m 1
 882.113 639.157 878.424 630.514 873.741 617.648 c 0
 859.946 579.747 846.768 534.34 830.277 476.574 c 0
 786.387 322.822 747.16 168.923 712.647 15.0439 c 1
 711.473 17.7705 l 1
 667.997 17.7705 l 1
 702.459 169.812 741.423 321.982 784.834 474.052 c 0
 793.049 502.828 814.95 580.298 833.831 632.174 c 0
 840.014 649.159 851.05 678.211 864.284 700.478 c 0
 871.346 712.357 877.88 720.464 883.619 725.848 c 0
 943.502 782.024 1018.7 782.602 1065.98 782.602 c 0
 1078.32 782.602 1081.75 760.426 1073.63 733.102 c 0
 1065.52 705.777 1048.92 683.602 1036.58 683.602 c 0
 968.251 683.602 919.091 674.067 884.112 643.388 c 1
61.6738 61.9785 m 0
 65.167 60.3574 68.7559 58.876 72.4307 57.5381 c 0
 85.6104 52.7412 99.9053 49.7998 114.902 48.835 c 0
 143.634 46.9863 162.863 77.5361 190.577 153.679 c 0
 196.727 170.574 202.845 188.562 208.97 206.605 c 0
 259.568 355.651 291.721 505.711 304.608 655.504 c 1
 304.635 655.44 l 1
 353.483 655.44 l 1
 337.198 504.862 302.746 350.56 250.726 197.325 c 0
 244.594 179.262 237.905 159.531 230.488 139.152 c 0
 193.892 38.6055 145.714 -54.0801 84.2383 -50.125 c 0
 67.5332 -49.0498 51.6064 -45.7832 36.7881 -40.3906 c 0
 32.6553 -38.8867 28.6094 -37.2168 24.6572 -35.3818 c 0
 11.6094 -29.3232 0.0283203 -22.0391 -8.61426 -13.0977 c 0
 -17.5029 -3.90234 -15.1445 24.4434 -3.35059 50.1738 c 0
 8.44336 75.9043 25.2295 89.3232 34.1191 80.127 c 0
 39.9111 74.1348 50.0879 67.3584 61.6738 61.9785 c 0
582.426 224.466 m 0
 593.742 200.901 605.894 177.875 618.859 155.417 c 0
 645.501 109.271 675.582 65.5254 708.931 24.4453 c 0
 716.41 15.2324 704.907 -3.19727 683.254 -16.6904 c 0
 661.602 -30.1846 637.959 -33.6592 630.479 -24.4463 c 0
 596.456 17.4658 565.789 62.0674 538.636 109.1 c 0
 525.421 131.989 513.039 155.453 501.508 179.464 c 0
 428.153 332.209 362.766 489.773 305.53 651.706 c 0
 301.562 662.933 316.652 681.68 339.214 693.55 c 0
 361.775 705.421 383.307 705.943 387.274 694.716 c 0
 444.269 533.465 509.383 376.563 582.426 224.466 c 0
EndSplineSet
Fore
305 655 m 0
 305 674 342 703 371 703 c 0
 379 703 385 700 387 695 c 0
 456 501 561 256 619 155 c 0
 637 124 657 93 679 64 c 1
 713 207 811.158 611.905 864 700 c 0
 910.138 776.917 1016 783 1054 783 c 2
 1066 783 l 2
 1075 783 1078 774 1078 763 c 0
 1078 734 1056 684 1037 684 c 0
 968 684 919 674 884 643 c 1
 857 586 770 269 713 15 c 1
 711 18 l 1
 711 -1 674 -30 645 -30 c 0
 638 -30 633 -28 630 -24 c 0
 580 38 538 105 502 179 c 0
 443 302 389 428 340 557 c 1
 321 438 291 317 251 197 c 2
 230 139 l 2
 194.573 41.1536 148 -50 88 -50 c 0
 54 -50 11 -34 -9 -13 c 0
 -13 -9 -15 -2 -15 6 c 0
 -15 36 10 83 27 83 c 0
 34 83 63 49 117 49 c 0
 145 49 164 80 191 154 c 2
 209 207 l 2
 259.645 356.121 292 506 305 655 c 0
EndSplineSet
EndChar
StartChar: O
Encoding: 79 79 16
Width: 903
Flags: HMW
Back
360.533 629.148 m 0
 266.561 574.894 204.898 479.05 183.46 393.293 c 0
 161.557 305.681 171.821 222.852 207.972 160.236 c 0
 250.577 86.4375 325.847 44.3232 416.631 44.3232 c 0
 465.874 44.3232 525.54 56.2227 583.431 89.6445 c 0
 677.386 143.89 739.412 236.512 761.292 324.031 c 0
 783.068 411.14 775.846 496.114 741.631 555.379 c 0
 702.529 623.107 641.841 638.842 596.778 638.842 c 0
 579.032 638.842 565.292 635.585 556.617 632.729 c 0
 548.953 630.206 542.681 627.277 536.357 623.627 c 0
 506.418 606.342 458.546 559.565 421.225 477.33 c 0
 413.969 461.344 388.098 442.284 363.477 434.788 c 0
 338.855 427.291 324.762 434.182 332.017 450.169 c 0
 365.415 523.76 423.712 607.782 515.058 660.521 c 0
 533.176 670.981 554.772 681.441 578.888 689.38 c 0
 607.301 698.734 633.739 702.817 658.453 702.817 c 0
 744.591 702.817 800.383 662.685 832.159 607.645 c 0
 869.375 543.182 876.938 453.586 853.326 359.133 c 0
 823.548 240.023 732.375 126.446 604.73 52.751 c 0
 555.143 24.1211 462.941 -19.6523 354.956 -19.6523 c 0
 240.908 -19.6523 160.374 33.6084 117.443 107.97 c 0
 71.5029 187.544 72.0908 280.852 91.4258 358.192 c 0
 121.201 477.294 211.571 592.337 339.233 666.043 c 0
 358.325 677.064 378.128 687.05 398.153 695.714 c 0
 423.795 706.809 443.654 704.665 442.483 690.928 c 0
 441.312 677.191 419.551 657.039 393.909 645.944 c 0
 382.294 640.918 371.277 635.352 360.533 629.148 c 0
EndSplineSet
Fore
79 261 m 0
 79 545 376 703 427 703 c 0
 436 703 443 699 443 692 c 0
 443 676 416 655 394 646 c 0
 259 588 172 441 172 302 c 0
 172 155 270 44 417 44 c 0
 600 44 774 206 774 421 c 0
 774 541 714 639 597 639 c 0
 579 639 557 636 536 624 c 0
 506 606 459 560 421 477 c 0
 411.87 457.059 372 432 346 432 c 0
 336 432 330 436 330 443 c 0
 330 445 331 447 332 450 c 0
 426 657 587 703 658 703 c 0
 799 703 867 596 867 465 c 0
 867 185 583 -20 355 -20 c 0
 182 -20 79 102 79 261 c 0
EndSplineSet
EndChar
StartChar: P
Encoding: 80 80 17
Width: 807
Flags: HMW
Back
266.064 298.027 m 0
 293.931 409.488 311.569 520.835 318.718 630.619 c 0
 319.604 644.231 341.143 664.406 366.796 675.653 c 0
 392.448 686.899 412.549 684.979 411.662 671.367 c 0
 404.403 559.884 386.488 446.686 358.099 333.129 c 0
 329.709 219.572 290.967 106.136 242.268 -5.8457 c 0
 235.362 -21.7246 209.694 -40.8799 184.973 -48.6025 c 0
 160.251 -56.3252 145.791 -49.7051 152.696 -33.8262 c 0
 200.223 75.459 238.199 186.566 266.064 298.027 c 0
171.199 587.705 m 0
 156.165 579.025 148.974 568.509 148.052 567.293 c 0
 136.081 551.516 131.768 534.675 130.522 529.691 c 0
 126.831 514.929 103.221 495.085 77.8193 485.397 c 0
 52.418 475.709 34.7979 479.827 38.4883 494.59 c 0
 45.3438 522.011 58.5645 542.71 68.2129 555.428 c 0
 97.4736 593.995 140.912 619.41 149.899 624.6 c 0
 161.082 631.056 157.421 628.828 159.314 629.848 c 0
 202.183 652.915 278.642 682.98 396.027 682.98 c 0
 415.239 682.98 417.016 668.65 399.993 650.993 c 0
 382.972 633.336 353.563 619.005 334.353 619.005 c 0
 260.756 619.005 202.603 604.655 173.925 589.224 c 0
 173.892 589.206 204.495 606.928 171.199 587.705 c 0
628.996 317.616 m 0
 655.315 332.812 710.454 370.44 729.645 447.202 c 0
 737.94 480.387 734.095 508.151 720.812 531.158 c 0
 685.219 592.811 581.86 619.005 471.463 619.005 c 2
 334.353 619.005 l 2
 315.141 619.005 313.363 633.336 330.386 650.993 c 0
 347.408 668.65 376.815 682.98 396.027 682.98 c 2
 533.138 682.981 l 2
 650.661 682.981 769.511 655.879 811.341 583.424 c 0
 826.918 556.442 831.85 522.989 821.679 482.304 c 0
 801.085 399.929 736.625 330.564 650.296 280.723 c 0
 556.094 226.335 452.284 205.135 367.995 205.135 c 0
 348.783 205.135 347.007 219.466 364.029 237.123 c 0
 381.051 254.78 410.459 269.111 429.67 269.111 c 0
 477.586 269.111 560.797 278.241 628.996 317.616 c 0
EndSplineSet
Fore
827 524 m 0
 827 372 617 205 368 205 c 0
 357 205 353 209 353 215 c 0
 353 233 393 269 430 269 c 0
 524 269 693 302 730 447 c 0
 733 459 734 471 734 481 c 0
 734 594 571 619 471 619 c 2
 407 619 l 1
 386 388 321 174 242 -6 c 0
 231 -31 189 -51 166 -51 c 0
 157 -51 151 -48 151 -42 c 0
 151 -25 291 240 318 619 c 1
 252 617 199 603 172 588 c 0
 117 556 154 515 78 485 c 0
 69 482 60 480 54 480 c 0
 44 480 38 484 38 491 c 0
 38 505 61 573 150 625 c 2
 159 630 l 2
 202 653 279 683 396 683 c 2
 533 683 l 2
 649 683 827 653 827 524 c 0
EndSplineSet
EndChar
StartChar: Q
Encoding: 81 81 18
Width: 933
Flags: HMW
Back
495.501 60.5205 m 0
 523.991 69.875 550.282 81.791 574.896 96.0029 c 0
 668.572 150.086 733.365 235.502 755.497 324.031 c 0
 775.078 402.355 765.749 476.341 733.299 532.548 c 0
 694.187 600.297 624.442 638.842 541.458 638.842 c 0
 496.09 638.842 441.344 628.206 388.216 597.533 c 0
 325.586 561.374 257.474 491.15 233.056 393.476 c 0
 216.271 326.34 232.403 276.822 249.167 247.784 c 0
 279.15 195.85 334.572 166.63 397.422 166.63 c 0
 441.452 166.63 482.701 177.54 517.275 193.954 c 0
 542.927 206.132 564.495 205.639 565.42 192.853 c 0
 566.344 180.066 546.275 159.807 520.624 147.628 c 0
 455.238 116.587 391.78 102.654 335.747 102.654 c 0
 250.111 102.654 189.851 141.456 158.639 195.518 c 0
 130.537 244.194 126.945 302.071 141.021 358.374 c 0
 167.974 466.183 251.334 567.696 366.916 634.427 c 0
 449.627 682.18 533.031 702.817 603.133 702.817 c 0
 709.293 702.817 784.152 653.535 823.827 584.814 c 0
 858.819 524.203 869.117 445.477 847.531 359.133 c 0
 818.088 241.358 723.562 132.643 596.196 59.1084 c 0
 561.272 38.9453 519.632 19.1055 473.089 3.82324 c 0
 364.214 -31.9268 258.179 -31.9883 180.267 -31.9883 c 0
 161.055 -31.9883 159.277 -17.6582 176.3 0 c 0
 193.322 17.6572 222.729 31.9873 241.94 31.9873 c 0
 341.778 31.9883 420.111 35.7656 495.501 60.5205 c 0
722.656 -65.2109 m 0
 728.598 -65.2109 737.07 -64.9297 748.115 -62.4404 c 0
 755.141 -60.8574 762.406 -58.4141 767.584 -55.4238 c 0
 773.476 -52.0225 779.501 -46.1875 785.138 -36.2891 c 0
 788.089 -31.1055 790.795 -24.7666 792.6 -17.5508 c 0
 796.29 -2.78809 819.9 17.0547 845.302 26.7432 c 0
 870.703 36.4316 888.323 32.3135 884.633 17.5508 c 0
 881.958 6.85059 877.697 -3.77148 871.604 -14.4727 c 0
 848.876 -54.3916 808.033 -81.2617 788.884 -92.3184 c 0
 761.783 -107.965 734.332 -118.022 710.074 -123.49 c 0
 692.625 -127.423 676.322 -129.187 660.981 -129.187 c 0
 480.578 -129.187 348.104 -31.9873 180.267 -31.9883 c 0
 161.055 -31.9883 159.277 -17.6572 176.3 0 c 0
 193.322 17.6572 222.729 31.9873 241.94 31.9873 c 0
 422.345 31.9883 554.818 -65.21 722.656 -65.2109 c 0
EndSplineSet
Fore
859 447 m 0
 859 236 662 56 447 -4 c 1
 538 -32 624 -65 723 -65 c 0
 765 -65 785 -50 793 -18 c 0
 798 3 842 32 869 32 c 0
 879 32 885 28 885 21 c 0
 885 -25 785 -129 661 -129 c 0
 481 -129 347 -32 180 -32 c 0
 170 -32 165 -28 165 -22 c 0
 165 -4 205 32 242 32 c 0
 341 32 464 32 575 96 c 0
 694 165 766 281 766 404 c 0
 766 538 677 639 541 639 c 0
 361 639 226 477 226 338 c 0
 226 235 301 167 397 167 c 0
 485 167 519 203 550 203 c 0
 557 203 565 201 565 192 c 0
 565 156 441 103 336 103 c 0
 212 103 133 185 133 296 c 0
 133 493 372 703 603 703 c 0
 759 703 859 594 859 447 c 0
EndSplineSet
EndChar
StartChar: R
Encoding: 82 82 19
Width: 976
Flags: HMW
Back
270.086 314.113 m 0
 296.607 420.195 312.906 526.163 318.71 630.492 c 0
 319.464 644.046 340.898 664.231 366.556 675.548 c 0
 392.213 686.864 412.424 685.048 411.67 671.494 c 0
 405.768 565.397 389.19 457.497 362.12 349.215 c 0
 335.049 240.933 297.612 132.77 250.221 26.1211 c 0
 243.141 10.1885 217.37 -8.91895 192.698 -16.5293 c 0
 168.025 -24.1396 153.748 -17.3848 160.828 -1.45117 c 0
 206.944 102.326 243.565 208.032 270.086 314.113 c 0
171.199 587.705 m 0
 156.165 579.025 148.974 568.509 148.052 567.293 c 0
 136.081 551.516 131.768 534.675 130.522 529.691 c 0
 126.831 514.929 103.221 495.085 77.8193 485.397 c 0
 52.418 475.709 34.7979 479.827 38.4883 494.59 c 0
 45.3438 522.011 58.5645 542.71 68.2129 555.428 c 0
 97.4736 593.995 140.912 619.41 149.899 624.6 c 0
 161.082 631.056 157.421 628.828 159.314 629.848 c 0
 202.183 652.915 278.642 682.98 396.027 682.98 c 0
 415.239 682.98 417.016 668.65 399.993 650.993 c 0
 382.972 633.336 353.563 619.005 334.353 619.005 c 0
 260.756 619.005 202.603 604.655 173.925 589.224 c 0
 173.892 589.206 214.951 612.966 171.199 587.705 c 0
649.08 375.882 m 0
 669.624 387.743 711.895 417.043 727.119 477.942 c 0
 735.945 513.246 733.154 538.952 721.963 558.337 c 0
 689.156 615.162 582 619.005 446.057 619.005 c 2
 334.353 619.005 l 2
 315.141 619.005 313.363 633.336 330.386 650.993 c 0
 347.408 668.65 376.815 682.98 396.027 682.98 c 2
 507.732 682.98 l 2
 635.033 682.98 771.035 682.409 812.491 610.603 c 0
 826.436 586.449 829.488 554.386 819.152 513.043 c 0
 801.427 442.139 745.158 382.161 670.38 338.987 c 0
 587.401 291.08 498.274 273.445 426.688 273.446 c 0
 407.477 273.446 405.699 287.776 422.722 305.434 c 0
 439.744 323.091 469.151 337.422 488.363 337.422 c 0
 565.184 337.421 621.642 360.04 649.08 375.882 c 0
612.801 232.206 m 0
 630.55 201.462 647.394 167.975 664.797 137.83 c 0
 687.709 98.1436 723.237 44.3232 760.383 44.3232 c 0
 773.223 44.3232 792.953 45.7754 814.922 55.6289 c 0
 818.66 57.3047 822.16 59.0996 825.649 61.1143 c 0
 844.699 72.1123 859.285 87.6777 867.786 98.1152 c 0
 882.034 115.607 910.925 131.756 932.275 134.16 c 0
 953.626 136.564 959.391 124.318 945.143 106.826 c 0
 920.629 76.7285 887.052 47.374 846.949 24.2197 c 0
 836.009 17.9043 824.762 12.1523 813.527 7.11426 c 0
 771.995 -11.5127 732.773 -19.6523 698.708 -19.6523 c 0
 653.534 -19.6523 618.759 8.50098 574.27 85.5635 c 0
 556.52 116.309 539.676 149.795 522.272 179.94 c 0
 499.361 219.626 463.833 273.445 426.688 273.446 c 0
 407.477 273.446 405.699 287.776 422.722 305.434 c 0
 439.744 323.091 469.151 337.422 488.363 337.422 c 0
 533.537 337.422 568.311 309.268 612.801 232.206 c 0
EndSplineSet
Fore
953 124 m 0
 953 97 826 -20 699 -20 c 0
 654 -20 619 9 574 86 c 2
 522 180 l 2
 499 220 464 273 427 273 c 0
 416 273 412 277 412 283 c 0
 412 301 452 337 488 337 c 0
 632 337 732 409 732 517 c 0
 732 610 618 619 446 619 c 2
 408 619 l 1
 388 399 326 196 250 26 c 0
 239 0 197 -19 174 -19 c 0
 165 -19 159 -16 159 -9 c 0
 159 8 295 258 318 619 c 1
 252 617 199 603 172 588 c 0
 117 556 154 515 78 485 c 0
 69 482 60 480 54 480 c 0
 44 480 38 484 38 491 c 0
 38 505 61 573 150 625 c 2
 159 630 l 2
 202 653 279 683 396 683 c 2
 553 683 l 2
 670 683 825 676 825 558 c 0
 825 448 720 341 569 295 c 1
 583 279 597 259 613 232 c 2
 665 138 l 2
 688 98 723 44 760 44 c 0
 811 44 844 69 868 98 c 0
 879 112 911 134 937 134 c 0
 948 134 953 130 953 124 c 0
EndSplineSet
EndChar
StartChar: S
Encoding: 83 83 20
Width: 700
Flags: HMW
Back
137.326 214.868 m 1
 142.712 217.978 149.697 223.908 149.911 224.154 c 1
 147.558 221.443 144.412 215.877 142.012 210.891 c 0
 133.194 192.579 126.472 162.171 143.503 132.67 c 0
 146.167 128.056 149.311 123.729 152.886 119.769 c 0
 174.616 95.6934 232.074 44.3232 333.354 44.3232 c 0
 407.106 44.3232 465.434 62.4531 495.608 79.874 c 0
 517.513 92.5205 542.775 115.138 553.432 157.762 c 0
 561.328 189.347 557.078 216.065 543.82 239.03 c 0
 514.863 289.188 442.113 320.387 369.465 343.594 c 0
 329.435 356.381 261.862 382.755 232.624 433.398 c 0
 219.052 456.908 213.831 485.327 222.483 519.936 c 0
 231.596 556.387 253.251 581.896 259.17 588.887 c 0
 277.005 609.953 302.087 632.121 336.204 651.369 c 0
 351.481 659.989 423.512 702.817 528.271 702.817 c 0
 581.773 702.817 629.953 692.424 671.886 673.152 c 0
 686.08 666.628 696.076 656.882 702.84 645.166 c 0
 714.505 624.961 716.681 598.914 709.679 570.903 c 2
 707.975 564.086 l 2
 704.284 549.323 680.674 529.479 655.272 519.791 c 0
 629.871 510.104 612.25 514.221 615.94 528.982 c 2
 617.645 535.801 l 2
 622.812 556.472 621.115 577.651 612.312 592.9 c 0
 607.207 601.741 599.757 608.595 590.819 612.703 c 0
 552.91 630.125 510.165 638.842 466.596 638.842 c 0
 411.187 638.842 376.56 624.906 357.504 614.476 c 0
 349.701 610.205 341.879 603.884 334.992 595.751 c 0
 327.242 586.597 318.937 572.717 314.517 555.037 c 0
 307.926 528.672 311.639 505.608 323.152 485.664 c 0
 336.291 462.907 367 430.963 446.948 405.424 c 0
 521.686 381.549 600.783 349.436 634.349 291.296 c 0
 649.703 264.7 655.358 232.437 645.466 192.863 c 0
 631.262 136.049 586.964 83.4268 516.908 42.9795 c 0
 432.49 -5.75781 339.534 -19.6523 271.68 -19.6523 c 0
 243.543 -19.6523 138.526 -17.4648 64.5488 64.4971 c 0
 60.1084 69.417 56.2451 74.7393 52.9746 80.4043 c 0
 30.4795 119.369 41.6709 160.644 53.3779 184.956 c 0
 56.4287 191.291 63.292 204.87 75.1611 218.541 c 0
 80.7617 224.992 93.4307 238.717 116.026 251.763 c 0
 119.673 253.867 131.171 259.588 134.907 261.157 c 0
 153.138 268.814 154.815 267.872 179.303 271.1 c 1
 198.514 271.1 200.291 256.77 183.269 239.112 c 0
 166.247 221.455 136.84 207.124 117.628 207.124 c 1
 117.627 207.124 128.393 210.419 128.393 210.419 c 1
 125.172 209.065 137.329 214.87 137.326 214.868 c 1
EndSplineSet
Fore
467 639 m 0
 373 639 311 601 311 530 c 0
 311 516 314 501 323 486 c 0
 377 392 570 404 634 291 c 0
 644 275 650 254 650 229 c 0
 650 98 477 -20 272 -20 c 0
 158 -20 40 44 40 130 c 0
 40 181 74 236 135 261 c 0
 153 269 155 268 179 271 c 0
 190 271 194 267 194 261 c 0
 194 247 170 222 142 212 c 1
 137 201 133 187 133 173 c 0
 133 155 138 136 153 120 c 0
 175 96 232 44 333 44 c 0
 407 44 464.962 62.0657 496 80 c 0
 535.951 103.085 557 146 557 186 c 0
 557 265 479 309 369 344 c 0
 314.143 361.455 218 401 218 487 c 0
 218 589 354 703 528 703 c 0
 570 703 676 692 703 645 c 0
 711 632 714 618 714 603 c 0
 714 591 711 578 708 564 c 0
 703 544 659 515 631 515 c 0
 621 515 615 518 615 525 c 0
 615 532 620 539 620 560 c 0
 620 597 599 609 591 613 c 0
 553 630 510 639 467 639 c 0
EndSplineSet
EndChar
StartChar: T
Encoding: 84 84 21
Width: 646
Flags: HMW
Back
338.151 149.717 m 2
 448.874 592.606 l 2
 452.613 607.564 478.52 629.231 506.7 640.971 c 0
 534.882 652.711 554.718 650.1 550.979 635.143 c 2
 440.256 192.253 l 2
 422.725 122.126 397.164 52.043 363.87 -16.8154 c 0
 355.853 -33.3955 327.211 -54.4062 299.937 -63.7129 c 0
 272.663 -73.0205 257.034 -67.1172 265.051 -50.5361 c 0
 296.639 14.792 321.234 82.0498 338.151 149.717 c 2
873.629 643.276 m 0
 852.814 631.26 831.739 624.281 817.157 620.919 c 0
 796.643 616.188 776.682 614.073 726.952 614.073 c 2
 249.026 614.073 l 2
 244.606 614.073 233.275 613.805 220.863 611.119 c 0
 208.198 608.378 200.305 604.584 196.642 602.469 c 0
 188.127 597.553 181.372 590.203 176.357 583.716 c 0
 168.205 573.168 159.01 557.347 155.872 535.25 c 0
 153.853 521.034 129.201 499.248 100.845 486.621 c 0
 72.4883 473.993 51.1133 475.282 53.1318 489.497 c 0
 58.6172 528.122 80.7959 556.859 86.9971 564.883 c 0
 117.944 604.92 160.713 630.916 175.341 639.361 c 0
 208.476 658.491 242.233 670.93 271.267 677.212 c 0
 289.566 681.172 306.607 682.966 322.726 682.966 c 2
 800.652 682.966 l 2
 825.039 682.966 850.468 683.085 865.44 686.538 c 0
 868.627 687.272 864.939 687.45 852.328 680.169 c 1
 852.329 680.169 827.87 657.701 828.798 661.412 c 0
 832.537 676.369 858.443 698.036 886.625 709.776 c 0
 914.806 721.517 934.643 718.905 930.903 703.948 c 0
 925.205 681.154 901.319 659.264 873.629 643.276 c 0
EndSplineSet
Fore
817 621 m 0
 797 616 777 614 727 614 c 2
 546 614 l 1
 440 192 l 2
 422 122 397 52 364 -17 c 0
 351 -44 301 -68 276 -68 c 0
 268 -68 263 -65 263 -59 c 0
 263 -46 304 15 338 150 c 2
 449 593 l 2
 450 599 456 607 464 614 c 1
 249 614 l 2
 175 614 159 560 156 535 c 0
 152 509 93 478 66 478 c 0
 58 478 53 481 53 487 c 2
 53 489 l 1
 68 592 212 683 323 683 c 2
 801 683 l 2
 816 683 832 683 845 684 c 1
 870 706 902 717 917 717 c 0
 926 717 931 714 931 707 c 0
 931 685 885 637 817 621 c 0
EndSplineSet
EndChar
StartChar: U
Encoding: 85 85 22
Width: 717
Flags: HMW
Back
264.211 29.3213 m 0
 240.838 15.8271 175.974 -19.6523 114.437 -19.6523 c 0
 65.2891 -19.6523 36.5859 3.16113 20.6523 30.7588 c 0
 -1.96387 69.9336 -4.4707 126.209 10.1064 184.518 c 0
 47.1396 332.65 184.12 558.501 154.353 610.062 c 0
 151.461 615.071 147.591 617.048 144.838 617.95 c 0
 143.966 618.236 144.492 618.161 142.549 618.547 c 0
 141.901 618.675 142.632 618.664 140.127 618.892 c 0
 139.629 618.937 140.662 619.005 137.518 619.005 c 0
 130.461 619.005 113.234 618.301 95.2275 611.734 c 0
 88.8682 609.415 83.6172 606.868 78.7744 604.072 c 0
 77.4756 603.322 76.1787 602.545 74.5039 601.471 c 0
 50.3477 585.983 23.6992 580.295 15.0225 588.774 c 0
 6.3457 597.254 18.9092 616.706 43.0664 632.194 c 0
 48.7148 635.815 53.0928 638.437 57.4746 640.966 c 0
 75.2471 651.227 93.7246 659.821 111.507 666.305 c 0
 143.66 678.03 173.036 682.98 199.192 682.981 c 0
 202.337 682.981 206.194 682.755 207.846 682.605 c 0
 210.352 682.378 214.169 681.79 215.646 681.497 c 0
 217.589 681.112 221.27 680.126 222.569 679.7 c 0
 233.396 676.152 240.452 669.999 244.881 662.328 c 0
 282.959 596.371 140.433 372.79 102.14 219.618 c 0
 88.5869 165.407 92.7354 114.976 111.181 83.0244 c 0
 129.41 51.4492 155.663 44.3232 176.111 44.3232 c 0
 187.541 44.3232 207.163 45.5771 242.911 66.2158 c 0
 382.578 146.852 621.078 443.056 668.675 633.442 c 0
 672.365 648.205 695.977 668.048 721.378 677.736 c 0
 746.779 687.424 764.399 683.306 760.709 668.544 c 0
 715.108 486.141 474.921 150.975 264.211 29.3213 c 0
612.817 199.963 m 0
 601.227 153.601 594.577 107.266 593.007 61.8223 c 0
 592.832 56.7617 593.98 52.1543 596.141 48.4131 c 0
 599.977 41.7686 607.865 37.7363 613.387 37.7842 c 0
 614.854 37.7969 611.459 37.9854 603.937 34.1904 c 1
 621.138 42.8691 l 2
 646.693 55.7627 669.381 56.4355 671.779 44.3721 c 0
 674.179 32.3076 655.384 12.0527 629.828 -0.84082 c 2
 612.626 -9.51953 l 2
 587.439 -22.2275 566.464 -26.0664 552.375 -26.1885 c 0
 545.688 -26.2461 518.429 -26.0537 505.612 -3.85352 c 0
 501.75 2.83594 499.697 10.8682 500.021 20.2676 c 0
 501.658 67.624 508.584 116.063 520.783 164.861 c 0
 560.146 322.311 609.8 479.65 669.456 635.9 c 0
 675.399 651.469 700.489 670.865 725.46 679.196 c 0
 750.431 687.527 765.872 681.654 759.928 666.086 c 0
 700.956 511.628 651.804 355.91 612.817 199.963 c 0
EndSplineSet
Fore
745 683 m 0
 754 683 761 680 761 673 c 0
 761 647 695.34 523.914 613 200 c 0
 601.049 152.987 593 99 593 69 c 0
 593 57 594 41 611 38 c 1
 621 43 l 2
 634 50 647 53 656 53 c 0
 665 53 672 50 672 42 c 0
 672 30 654 11 630 -1 c 2
 613 -10 l 2
 589 -21 569 -26 552 -26 c 0
 520 -26 500 -8 500 18 c 0
 500 96 529 203 559 306 c 1
 424 134 250 -20 114 -20 c 0
 34 -20 1 41 1 114 c 0
 1 256 159 499 159 590 c 0
 159 615 146 619 138 619 c 0
 79 619 66 585 28 585 c 0
 19 585 12 588 12 596 c 0
 12 622 108 683 199 683 c 0
 237 683 251 664 251 633 c 0
 251 529 94 294 94 157 c 0
 94 90 125 44 176 44 c 0
 286 44 533 323 633 538 c 2
 669 636 l 2
 678 659 722 683 745 683 c 0
EndSplineSet
EndChar
StartChar: V
Encoding: 86 86 23
Width: 718
Flags: HMW
Back
186.378 545.039 m 0
 156.063 597.545 114.879 623.774 66.7402 623.774 c 0
 48.3545 623.774 44.5244 637.035 58.1885 653.374 c 0
 71.8535 669.714 97.8652 682.975 116.251 682.975 c 0
 191.788 682.974 237.446 641.855 266.602 591.355 c 0
 352.284 442.944 330.744 146.248 319.213 41.0176 c 1
 292.485 21.5244 271.262 7.36914 258.834 0 c 1
 232.105 -27.1719 l 1
 232.125 -25.6797 232.389 -24.0635 232.914 -22.3311 c 1
 229.835 -32.4688 290.87 364.047 186.378 545.039 c 0
685.204 474.402 m 0
 687.413 480.474 689.128 486.061 690.481 491.475 c 0
 692.606 499.974 691.692 505.026 691.459 507.769 c 0
 689.423 531.661 672.684 563.431 634.959 577.161 c 0
 623.305 581.402 610.17 583.728 595.911 583.728 c 0
 583.571 583.728 580.143 605.904 588.257 633.228 c 0
 596.372 660.552 612.973 682.729 625.312 682.729 c 0
 641.76 682.729 656.938 680.062 670.603 675.09 c 0
 706.429 662.05 739.687 629.15 744.58 571.723 c 0
 746.214 552.545 744.751 528.754 737.992 501.719 c 0
 734.471 487.632 730.097 473.564 725.114 459.876 c 0
 637.794 219.964 312.675 -10.9561 251.764 -47.0752 c 0
 237.521 -55.5225 229.128 -41.2871 233.03 -15.3018 c 0
 236.934 10.6846 251.661 38.6299 265.904 47.0762 c 0
 383.257 116.665 633.623 332.684 685.204 474.402 c 0
EndSplineSet
Fore
232 -27 m 0
 232 -18 248 77 248 214 c 0
 248 398 212 624 67 624 c 0
 56 624 50 628 50 636 c 0
 50 655 87 683 116 683 c 0
 295 683 331 442 331 248 c 0
 331 186 327 129 324 86 c 1
 533 237 692 431 692 502 c 0
 692 535 661 584 596 584 c 0
 587 584 583 592 583 603 c 0
 583 632 606 683 625 683 c 0
 693 683 745 637 745 557 c 0
 745 540 743 521 738 502 c 0
 669 227 260 -50 244 -50 c 0
 236 -50 232 -40 232 -27 c 0
EndSplineSet
EndChar
StartChar: W
Encoding: 87 87 24
Width: 1133
Flags: HMW
Back
171.951 556.362 m 0
 145.637 601.94 109.491 623.774 66.7412 623.774 c 0
 48.3545 623.774 44.5244 637.035 58.1885 653.374 c 0
 71.8535 669.713 97.8652 682.975 116.251 682.975 c 0
 156.866 682.975 212.548 671.316 252.175 602.68 c 0
 318.82 487.242 306.593 265.689 289.717 126.092 c 1
 351.012 198.404 408.418 273.011 461.606 349.401 c 0
 523.4 438.15 579.318 529.035 629.066 621.295 c 1
 624.91 631.349 l 2
 620.358 642.265 634.884 660.99 657.335 673.148 c 0
 679.786 685.307 701.701 686.315 706.254 675.4 c 0
 750.486 569.338 784.889 457.865 809.144 342.002 c 0
 828.518 249.451 841.368 154.321 847.625 57.1689 c 1
 823.644 30.3408 804.53 10.3564 793.936 0 c 2
 767.194 -27.1846 l 1
 762.486 85.2783 748.936 195.207 726.642 301.703 c 0
 707.537 392.968 682.06 481.49 650.372 566.746 c 1
 597.675 469.715 539.267 375.227 475.626 283.825 c 0
 396.753 170.546 310.098 62.3545 216.523 -39.958 c 0
 201.772 -56.0859 189.207 -51.2734 188.474 -29.2168 c 0
 188.426 -27.751 188.43 -26.2471 188.485 -24.709 c 0
 188.44 -24.1553 188.464 -23.6201 188.562 -23.1123 c 0
 188.938 -16.5928 190.191 -9.54883 192.131 -2.48926 c 0
 204.894 77.9658 259.547 404.636 171.951 556.362 c 0
1097.38 465.162 m 0
 1100.87 474.759 1103.56 483.49 1105.56 491.475 c 0
 1108.15 501.86 1107.59 503.742 1107.72 506.472 c 0
 1108.91 530.938 1099.25 566.681 1064.26 579.415 c 0
 1056.62 582.196 1047.98 583.728 1038.36 583.728 c 0
 1026.02 583.728 1022.59 605.904 1030.71 633.229 c 0
 1038.82 660.552 1055.42 682.729 1067.76 682.729 c 0
 1079.52 682.729 1090.24 680.86 1099.91 677.344 c 0
 1138.26 663.386 1164.34 621.55 1161.07 554.194 c 0
 1160.29 538.18 1157.74 520.411 1153.07 501.719 c 0
 1148.78 484.56 1143.4 467.433 1137.29 450.636 c 0
 1057.85 232.394 819.061 -16.8125 793.259 -42.0332 c 0
 778.495 -56.4639 766.815 -49.3457 767.189 -26.1436 c 0
 767.562 -2.94141 779.848 27.6016 794.611 42.0332 c 0
 869.646 115.376 1046.97 326.677 1097.38 465.162 c 0
EndSplineSet
Fore
624 636 m 0
 624 653 660 683 690 683 c 0
 698 683 704 680 706 675 c 0
 778 503 827 307 845 95 c 1
 954 216 1108 427 1108 510 c 0
 1108 540 1092 584 1038 584 c 0
 1030 584 1026 592 1026 603 c 0
 1026 632 1048 683 1068 683 c 0
 1118 683 1161 646 1161 568 c 0
 1161 348 838 1 793 -42 c 0
 788 -47 783 -50 779 -50 c 0
 772 -50 767 -42 767 -27 c 0
 767 84 735 338 650 567 c 1
 509 307 348 103 217 -40 c 0
 211 -47 205 -50 201 -50 c 0
 193 -50 188 -41 188 -25 c 0
 188 -18 220 140 220 300 c 0
 220 450 190 624 67 624 c 0
 56 624 50 628 50 636 c 0
 50 655 87 683 116 683 c 0
 228 683 303 588 303 331 c 0
 303 257 297 184 290 126 c 1
 417 277 534 444 629 621 c 1
 625 631 l 2
 624 633 624 634 624 636 c 0
EndSplineSet
EndChar
StartChar: X
Encoding: 88 88 25
Width: 815
Flags: HMW
Back
703.299 26.082 m 0
 687.799 17.1328 673.32 11.7236 661.832 8.41602 c 0
 630.467 -0.612305 596.986 0.183594 590.478 0.183594 c 0
 542.796 0.183594 522.84 27.4727 513.379 43.8604 c 0
 498.702 69.2842 492.112 101.927 487.729 133.146 c 2
 435.608 504.443 l 2
 431.366 534.661 424.781 565.274 412.217 587.037 c 0
 397.885 611.862 379.784 619.005 363.972 619.005 c 0
 353.084 619.005 334.04 618.54 325.388 616.05 c 0
 325.382 616.048 327.928 616.61 334.125 620.188 c 0
 342.908 625.26 347.766 629.979 348.375 631.174 c 1
 347.693 629.836 346.862 627.789 346.116 624.808 c 0
 342.426 610.045 318.814 590.201 293.413 580.514 c 0
 268.012 570.826 250.392 574.944 254.083 589.707 c 0
 255.677 596.081 257.691 601.253 260.379 606.524 c 0
 262.609 610.9 276.089 635.873 312.825 657.083 c 0
 328.324 666.031 342.804 671.441 354.291 674.748 c 0
 385.657 683.776 419.137 682.98 425.646 682.98 c 0
 473.328 682.981 493.284 655.691 502.745 639.304 c 0
 517.423 613.881 524.012 581.238 528.395 550.018 c 2
 580.516 178.722 l 2
 584.758 148.503 591.343 117.89 603.907 96.127 c 0
 618.239 71.3018 636.34 64.1592 652.152 64.1592 c 0
 670.622 64.1592 684.294 65.2607 690.735 67.1143 c 0
 690.742 67.1162 688.196 66.5537 681.999 62.9756 c 1
 682.003 62.9775 666.861 50.25 667.749 51.9902 c 0
 668.431 53.3281 669.262 55.376 670.007 58.3574 c 0
 673.698 73.1191 697.31 92.9629 722.71 102.65 c 0
 748.111 112.339 765.731 108.22 762.041 93.458 c 0
 760.447 87.083 758.433 81.9111 755.745 76.6406 c 0
 753.515 72.2646 740.035 47.291 703.299 26.082 c 0
77.5342 27.6211 m 0
 68.7363 42.8604 66.4521 62.5947 72.0332 84.9199 c 0
 74.21 93.6289 81.79 112.05 108.753 138.319 c 0
 150.839 179.323 219.961 221.715 279.958 256.354 c 0
 399.643 325.453 549.387 400.412 659.012 463.704 c 0
 725.674 502.191 767.72 531.13 785.553 548.505 c 0
 788.511 551.387 794.864 557.784 796.204 563.144 c 0
 799.844 577.705 798.276 592.768 792.208 603.278 c 0
 785.822 614.34 775.646 619.005 767.716 619.005 c 0
 748.504 619.005 746.728 633.335 763.749 650.992 c 0
 780.771 668.649 810.179 682.98 829.391 682.98 c 0
 861.309 682.98 875.252 668.509 882.736 655.544 c 0
 891.534 640.305 893.818 620.57 888.237 598.245 c 0
 884.162 581.942 869.85 562.706 851.518 544.845 c 0
 809.432 503.841 740.31 461.449 680.312 426.81 c 0
 560.627 357.711 410.883 282.751 301.258 219.46 c 0
 226.77 176.454 191.737 151.241 174.718 134.659 c 0
 171.76 131.777 165.406 125.381 164.066 120.021 c 0
 160.427 105.46 161.994 90.3965 168.062 79.8867 c 0
 174.449 68.8242 184.624 64.1592 192.556 64.1592 c 0
 211.767 64.1592 213.544 49.8291 196.521 32.1719 c 0
 179.499 14.5146 150.092 0.183594 130.88 0.183594 c 0
 98.9619 0.183594 85.0195 14.6562 77.5342 27.6211 c 0
EndSplineSet
Fore
891 622 m 0
 891 569 855 518 555 357 c 1
 581 179 l 2
 589 116 608 64 652 64 c 0
 660 64 667 64 673 65 c 1
 688 90 726 108 747 108 c 0
 757 108 763 104 763 97 c 0
 763 79 724 0 590 0 c 0
 516 0 497 65 488 133 c 2
 463 308 l 1
 162 148 162 129 162 105 c 0
 162 81 176 64 193 64 c 0
 203 64 208 60 208 54 c 0
 208 36 167 0 131 0 c 0
 91 0 69 26 69 61 c 0
 69 120 113 170 457 354 c 1
 436 504 l 2
 427 567 408 619 364 619 c 0
 358 619 351 619 343 618 c 1
 328 593 290 575 269 575 c 0
 260 575 254 579 254 586 c 0
 254 604 292 683 426 683 c 0
 500 683 519 618 528 550 c 2
 549 403 l 1
 659 464 l 2
 791 540 798 556 798 579 c 0
 798 602 785 619 768 619 c 0
 757 619 753 623 753 629 c 0
 753 647 793 683 829 683 c 0
 870 683 891 657 891 622 c 0
EndSplineSet
EndChar
StartChar: Y
Encoding: 89 89 26
Width: 763
Flags: HMW
Back
297.55 529.893 m 0
 289.431 543.957 245.898 623.774 159.12 623.774 c 0
 153.287 623.774 152.15 623.19 151.168 622.623 c 0
 150.417 622.189 148.225 620.156 146.692 618.391 c 0
 132.521 602.061 106.413 589.171 88.4141 589.625 c 0
 70.416 590.079 67.3096 603.703 81.4795 620.036 c 0
 93.5869 633.99 110.259 648.162 129.883 659.492 c 0
 157.574 675.479 184.986 682.975 208.63 682.975 c 0
 292.705 682.975 343.993 634.722 377.773 576.21 c 0
 460.83 432.347 463.006 175.856 459.037 62.3262 c 1
 430.125 36.4541 401.5 13.0234 374.291 -7.42578 c 1
 378.09 63.0186 393.122 364.344 297.55 529.893 c 0
168.724 -46.5225 m 0
 183.325 -51.8369 199.649 -54.6982 217.132 -54.6982 c 0
 293.945 -54.6982 633.146 203.415 726.51 459.924 c 0
 731.707 474.201 736.05 488.259 739.535 502.201 c 0
 742.192 512.828 741.387 513.72 741.456 516.319 c 0
 742.11 540.968 728.764 576.729 687.062 591.906 c 0
 676.104 595.895 663.741 598.089 650.271 598.089 c 0
 637.896 598.089 633.027 617.129 639.404 640.589 c 0
 645.781 664.049 661 683.089 673.375 683.089 c 0
 689.407 683.089 704.2 680.493 717.539 675.638 c 0
 754.977 662.012 793.765 624.043 791.854 552.155 c 0
 791.474 537.84 789.373 522.053 785.289 505.715 c 0
 780.203 485.374 773.933 465.163 766.701 445.295 c 0
 653.185 133.419 285.115 -139.698 194.027 -139.698 c 0
 173.973 -139.698 155.234 -136.438 138.247 -130.255 c 0
 111.084 -120.368 65.9629 -93.8926 51.0293 -29.334 c 0
 47.1025 -12.3584 54.7549 14.5605 68.1113 30.7529 c 0
 81.4678 46.9453 95.4941 46.3096 99.4209 29.334 c 0
 106.892 -2.96191 129.964 -32.415 168.724 -46.5225 c 0
EndSplineSet
Fore
637 621 m 0
 637 651 658 683 673 683 c 0
 745 683 792 632 792 557 c 0
 792 541 790 524 785 506 c 0
 701 169 291 -140 194 -140 c 0
 85 -140 50 -48 50 -19 c 0
 50 4 67 42 87 42 c 0
 93 42 97 38 99 29 c 0
 110 -15 151 -55 217 -55 c 0
 244 -55 305 -22 376 32 c 1
 377 55 377 79 377 102 c 0
 377 388 312 624 159 624 c 0
 153 624 151 624 147 618 c 0
 133 602 107 590 89 590 c 0
 79 590 73 594 73 602 c 0
 73 621 138 683 209 683 c 0
 431 683 460 331 460 134 c 2
 460 101 l 1
 689 307 742 484 742 519 c 0
 742 558 708 598 650 598 c 0
 642 598 637 607 637 621 c 0
EndSplineSet
EndChar
StartChar: Z
Encoding: 90 90 27
Width: 821
Flags: HMW
Back
794.769 623.805 m 0
 785.615 618.521 775.613 613.29 763.215 608.005 c 0
 731.718 594.578 706.058 590.161 685.164 590.161 c 0
 592.941 590.161 512.11 614.073 426.981 614.073 c 0
 398.724 614.073 375.027 609.024 360.169 604.132 c 0
 351.28 601.205 345.855 598.501 343.113 596.918 c 0
 336.329 593.001 330.534 586.564 325.38 578.355 c 0
 321.17 571.65 317.135 562.9 314.578 552.674 c 0
 310.838 537.716 284.932 516.049 256.751 504.309 c 0
 228.57 492.569 208.733 495.181 212.473 510.138 c 0
 215.959 524.082 221.72 537.694 230.397 551.514 c 0
 248.668 580.611 280.134 609.747 321.813 633.811 c 0
 345.872 647.7 369.737 657.808 391.526 664.981 c 0
 403.326 668.867 446.731 682.966 500.68 682.966 c 0
 592.903 682.966 673.734 659.054 758.863 659.054 c 0
 764.177 659.054 771.303 659.88 774.677 661.318 c 0
 774.687 661.322 773.397 660.656 773.468 660.697 c 0
 773.469 660.698 772.823 660.298 772.825 660.299 c 0
 798.73 678.167 829.257 687.391 840.962 680.889 c 0
 852.668 674.387 841.143 654.607 815.237 636.739 c 0
 807.43 631.354 801.055 627.434 794.769 623.805 c 0
481.615 373.879 m 0
 576.362 458.599 667.021 548.581 752.795 643.199 c 0
 769.825 661.986 802.12 679.616 824.883 682.553 c 0
 847.645 685.488 852.297 672.625 835.267 653.839 c 0
 745.806 555.152 650.586 460.559 550.067 370.678 c 0
 416.151 250.935 277.406 136.196 134.318 26.9365 c 0
 110.049 8.4043 78.3369 -3.18262 63.5342 1.07227 c 0
 48.7314 5.32812 56.4141 23.8223 80.6836 42.3545 c 0
 218.149 147.322 351.966 257.95 481.615 373.879 c 0
658.331 34.085 m 0
 649.429 28.9453 639.766 23.8555 627.69 18.626 c 0
 596.388 5.06836 569.818 0.198242 548.038 0.199219 c 0
 417.546 0.199219 297.577 24.1104 172.105 24.1104 c 0
 162.372 24.1104 136.204 23.0693 110.304 11.832 c 0
 108.27 10.9492 113.372 13.3467 106.712 10.207 c 0
 78.2871 -3.19336 55.5713 -3.12012 56.0068 10.3691 c 0
 56.4424 23.8594 79.8652 45.6836 108.29 59.084 c 0
 114.95 62.2236 117.763 63.415 120.119 64.4375 c 0
 167.666 85.0664 209.596 93.0029 245.805 93.0029 c 0
 376.296 93.0029 496.265 69.0918 621.737 69.0908 c 0
 626.112 69.0908 634.289 69.8379 637.669 71.3018 c 0
 637.698 71.3145 637.01 70.9658 637.031 70.9775 c 0
 638.65 71.9121 646.709 79.0879 652.249 85.5645 c 0
 665.78 101.385 681.651 127.266 689.778 159.771 c 0
 693.518 174.728 719.424 196.395 747.604 208.135 c 0
 775.786 219.874 795.622 217.263 791.883 202.306 c 0
 787.403 184.389 774.929 143.114 737.554 99.4189 c 0
 719.218 77.9824 693.414 54.3398 658.331 34.085 c 0
598.248 336.818 m 1
 598.246 336.82 593.843 339.141 593.836 339.143 c 0
 579.162 344.599 548.925 345.778 499.271 345.778 c 2
 346.23 345.778 l 2
 329.354 345.778 323.081 357.65 332.229 372.278 c 0
 341.376 386.906 362.496 398.778 379.373 398.778 c 2
 532.413 398.778 l 2
 603.7 398.778 627.48 395.799 645.234 389.198 c 0
 655.011 385.563 661.225 380.728 664.493 375.065 c 0
 667.898 369.168 668.008 362.615 666.494 356.564 c 0
 663.017 342.654 644.873 327.691 625.995 323.166 c 0
 607.117 318.641 594.618 326.258 598.096 340.168 c 1
 597.656 338.409 598.098 337.078 598.248 336.818 c 1
EndSplineSet
Fore
172 24 m 0
 116 24 100 0 71 0 c 0
 62 0 56 3 56 10 c 0
 56 18 65 32 87 47 c 0
 231 158 351 257 450 346 c 1
 346 346 l 2
 335 346 328 351 328 360 c 0
 328 375 354 399 379 399 c 2
 509 399 l 1
 588 472 653 536 705 591 c 1
 698 591 692 590 685 590 c 0
 593 590 512 614 427 614 c 0
 331 614 320 574 315 553 c 0
 309 531 259 497 227 497 c 0
 218 497 212 500 212 507 c 0
 212 557 330 683 501 683 c 0
 593 683 674 659 759 659 c 0
 763 659 769 660 773 661 c 1
 793 675 816 683 831 683 c 0
 838 683 846 681 846 673 c 0
 846 668 842 661 835 654 c 0
 779 592 697 506 580 398 c 1
 638 396 667 388 667 364 c 0
 667 343 639 322 616 322 c 0
 605 322 597 326 598 337 c 1
 590 343 563 345 522 346 c 1
 438 270 337 185 218 91 c 1
 227 93 237 93 246 93 c 0
 376 93 496 69 622 69 c 0
 626 69 634 70 637 71 c 0
 651 79 679 115 690 160 c 0
 695 181 746 215 778 215 c 0
 787 215 792 212 792 206 c 0
 792 197 776 144 738 99 c 0
 700 56 624 0 548 0 c 0
 418 0 298 24 172 24 c 0
EndSplineSet
EndChar
